<svg version="1.1" id="Layer_1" xmlns="http://www.w3.org/2000/svg" xmlns:xlink="http://www.w3.org/1999/xlink" x="0px" y="0px"
	 width="100%" viewBox="0 0 736 784" enable-background="new 0 0 736 784" xml:space="preserve">
<path fill="#000000" opacity="1.000000" stroke="none" 
	d="
M386.419128,641.390381 
	C384.472748,648.752625 381.666260,651.351135 376.083405,651.274780 
	C369.615204,651.186279 366.940521,648.392944 364.519165,641.741943 
	C358.076721,624.045715 346.791809,610.784241 328.646698,604.016174 
	C313.389130,598.325134 297.310181,594.994141 282.741150,587.269531 
	C271.776947,581.456360 263.035706,573.159729 254.479691,564.494751 
	C249.914764,559.871643 245.275742,555.321777 240.683304,550.725708 
	C238.241013,548.281494 235.705963,547.907471 232.602554,549.715027 
	C227.552612,552.656372 222.600403,555.731384 218.180450,559.550354 
	C215.690277,561.701965 214.005524,561.864929 211.648224,559.120483 
	C190.589081,534.602966 169.435867,510.165802 148.190948,485.809052 
	C145.380783,482.587280 145.322815,480.650208 148.812363,477.779175 
	C168.931305,461.226288 187.939651,443.471588 203.124130,422.161407 
	C220.592163,397.646393 234.029724,371.035889 238.848236,341.071533 
	C241.602814,323.941956 239.800095,306.572113 236.901627,289.393646 
	C233.753433,270.735107 224.012283,256.542358 208.797134,245.773636 
	C204.773834,242.926117 200.443954,241.144821 195.357086,241.097092 
	C186.944504,241.018158 181.814087,245.699844 181.155853,254.283646 
	C180.084503,268.254913 186.103592,278.405151 197.894394,285.372681 
	C202.046951,287.826538 206.437073,289.877472 210.710129,292.128662 
	C216.953339,295.417816 222.124191,299.731995 223.938080,306.920959 
	C225.061920,311.375031 223.547104,315.211182 220.150177,318.131805 
	C217.055466,320.792603 213.382462,320.670929 209.768265,319.293182 
	C208.097672,318.656342 206.478973,317.699036 206.722702,315.519714 
	C208.430069,314.212128 209.784409,315.575439 211.207535,315.611145 
	C213.510117,315.668884 215.699249,315.372559 216.589081,312.944122 
	C217.502762,310.450653 216.053680,308.842651 213.976624,307.677521 
	C208.731293,304.735260 203.126160,302.606445 197.500305,300.565308 
	C173.478729,291.849915 163.991516,274.605743 164.782654,250.884506 
	C165.220230,237.764160 174.000122,227.503311 188.108246,224.420898 
	C208.235168,220.023453 221.549271,207.505219 231.693924,190.581223 
	C235.116867,184.870773 238.141602,178.914795 242.313522,173.667877 
	C249.717468,164.356094 259.740479,163.043228 268.783722,170.677139 
	C281.377411,181.308197 293.814240,192.128784 306.179474,203.025620 
	C316.127167,211.791977 327.672180,217.532166 340.220673,221.296631 
	C343.316559,222.225372 346.822113,221.893021 350.142456,221.947205 
	C356.807404,222.055984 362.559052,223.860764 366.622498,229.638321 
	C367.843811,231.374817 369.560181,232.843338 371.275452,234.134872 
	C374.480835,236.548370 377.776428,236.519669 380.767365,233.674225 
	C382.454132,232.069504 384.098816,230.393616 385.564911,228.589264 
	C389.106476,224.230667 393.661774,222.447525 399.193756,222.653824 
	C413.770538,223.197403 426.106567,217.011993 437.429230,208.882034 
	C453.408875,197.408264 467.481140,183.597168 482.385193,170.803040 
	C490.555328,163.789612 501.046509,164.976562 507.971649,173.350327 
	C512.562378,178.901352 515.774231,185.344543 519.450684,191.486694 
	C526.955444,204.024780 536.463928,214.461090 549.946655,220.837723 
	C553.605225,222.568039 557.393982,223.756851 561.300659,224.554230 
	C578.637573,228.092804 588.313354,242.109802 586.128967,259.836121 
	C583.536865,280.870361 572.367859,294.606720 552.349731,301.327576 
	C549.513306,302.279877 546.779114,303.538239 544.002930,304.668152 
	C539.287842,306.587189 533.671936,307.916504 537.701355,315.107574 
	C530.738159,315.950592 526.242737,309.807648 528.058716,302.959381 
	C529.277710,298.362579 532.424683,295.498169 536.676270,293.921051 
	C542.175720,291.881073 547.302673,289.121216 552.347656,286.218628 
	C564.728638,279.095367 571.086060,268.645966 569.750549,254.035706 
	C568.866699,244.365189 561.111572,238.924408 551.118958,241.918121 
	C539.992798,245.251419 532.333191,253.271408 525.417542,262.315399 
	C515.843994,274.835449 512.953857,289.465698 511.786865,304.459167 
	C510.286224,323.738586 509.935242,343.055786 516.570312,361.746979 
	C527.389709,392.225616 542.723938,419.970947 565.005127,443.709045 
	C576.434326,455.885590 588.751831,467.060913 601.418030,477.889465 
	C606.089417,481.883087 606.078064,482.099945 601.941162,486.884491 
	C581.568909,510.445465 561.218933,534.025635 540.886841,557.621216 
	C536.505432,562.705811 536.628601,562.644714 531.154419,558.716309 
	C526.966248,555.710815 522.541565,553.036743 518.257385,550.162537 
	C515.306396,548.182739 512.837830,548.632385 510.203339,550.987000 
	C504.224945,556.330139 498.872131,562.272522 493.389252,568.086304 
	C480.503784,581.749268 465.038910,591.023560 447.012848,596.274048 
	C437.591400,599.018188 428.011322,601.594482 419.073486,605.539307 
	C403.250427,612.523132 392.856171,625.049683 386.419128,641.390381 
M291.314911,278.897491 
	C288.616333,278.324493 287.619080,277.213501 289.193787,274.374756 
	C291.309662,270.560516 291.214355,269.712860 290.361267,264.450470 
	C289.980835,272.453674 288.429291,275.045074 283.188751,276.547638 
	C281.870361,276.925629 280.505280,277.357056 279.451752,276.205231 
	C278.253448,274.895172 279.277771,273.723785 280.039307,272.652802 
	C282.987885,268.506256 283.007538,263.288879 285.496643,259.434387 
	C283.897980,256.879425 280.091553,257.253174 280.459961,253.615082 
	C282.237488,252.174881 285.593353,252.657227 286.055389,249.414017 
	C285.096039,247.123535 281.181122,247.493118 281.328827,243.861588 
	C285.928986,241.775330 290.787476,239.657700 293.076263,234.588379 
	C291.689728,232.262222 287.691040,233.350418 287.757385,229.479263 
	C291.283295,228.739777 294.637482,227.513580 297.883820,225.917786 
	C304.635956,222.598663 305.586823,222.873871 309.304749,229.412491 
	C311.934387,234.037109 315.012695,237.409714 321.004852,237.049911 
	C324.847473,236.819183 327.846222,239.176697 330.705536,241.621948 
	C333.729919,244.208420 335.976440,247.602692 339.582001,249.602463 
	C345.137268,252.683640 346.288330,258.846985 342.330750,263.861420 
	C340.445923,266.249573 338.298065,268.058105 336.682343,263.577942 
	C336.198608,262.236633 335.454559,261.627899 334.070557,262.066833 
	C332.761475,262.481995 332.328308,263.505310 332.369568,264.794800 
	C332.467804,267.865540 334.438538,268.766785 337.071686,268.687653 
	C341.793732,268.545807 342.267578,271.177429 341.340332,274.901886 
	C340.649750,277.675812 339.540894,280.132782 336.528168,281.454102 
	C339.997864,283.144196 340.752441,280.605133 341.664948,278.796356 
	C343.625763,274.909729 345.763184,271.144714 348.702728,267.925812 
	C351.075989,265.326965 358.150574,264.786102 360.785034,266.969421 
	C363.409119,269.144135 363.618683,272.581696 361.893372,274.644745 
	C358.188690,279.074646 357.768829,284.890808 354.563171,289.516510 
	C352.921387,291.885651 352.756531,295.197571 349.029877,293.708710 
	C347.303436,295.636353 349.243805,298.590271 346.452423,299.611511 
	C343.830963,299.115173 344.581909,296.222992 342.776855,294.809235 
	C339.766785,296.906250 336.028473,296.113953 332.596008,296.522461 
	C331.911316,299.428528 333.099731,301.523865 334.732391,303.169922 
	C340.526794,309.011902 346.729370,314.279266 355.323212,315.475708 
	C357.663971,315.801605 360.427856,315.979919 361.007172,318.679871 
	C361.781586,322.288879 364.177338,322.040558 366.688324,321.778473 
	C370.092926,321.423096 369.653564,318.696472 369.656830,316.428680 
	C369.687164,295.433655 369.678345,274.438507 369.665985,253.443405 
	C369.665039,251.801620 369.990234,249.885895 368.195526,248.963226 
	C362.897827,246.239639 358.784088,242.145798 354.857147,237.809616 
	C353.471527,236.279694 351.629333,236.282364 349.784210,236.223740 
	C335.595917,235.772934 322.727112,231.076797 310.861755,223.612228 
	C294.274231,213.176880 280.256561,199.545029 265.737244,186.564774 
	C252.143021,174.411591 245.363510,175.500351 236.165268,191.293610 
	C229.315399,203.054718 221.148773,213.699509 209.180283,220.833954 
	C208.062653,221.500168 206.805283,222.142349 206.781143,224.095840 
	C208.839355,226.436600 212.296860,226.554398 214.904831,228.239517 
	C235.531754,241.567337 249.585022,259.476440 254.358322,284.046570 
	C257.132477,298.326202 257.389557,312.810394 257.837891,327.239075 
	C258.068207,334.652283 258.018890,342.278809 256.075439,349.579773 
	C253.511414,359.212006 251.079575,368.894714 247.284790,378.161194 
	C246.512833,380.046234 245.201721,382.527222 248.586777,383.390350 
	C251.236816,384.066071 253.145523,383.423828 254.584351,380.515015 
	C259.581329,370.412903 262.526337,360.110168 259.837006,348.756195 
	C259.333374,346.629852 259.622040,344.497223 261.912109,343.096832 
	C268.400391,339.129272 268.272034,339.136993 264.686066,332.199890 
	C261.421936,325.885437 258.911865,319.375214 262.145172,312.194031 
	C262.828674,310.675964 262.501801,309.300812 261.730957,307.914124 
	C258.044220,301.281555 258.553467,294.690277 261.216766,287.737305 
	C266.592804,273.702301 270.116577,259.174103 271.377380,244.148666 
	C271.862213,238.370621 269.895081,234.296677 265.587585,232.828705 
	C264.699921,236.695938 266.732635,239.976746 267.427643,243.446213 
	C269.019531,251.393005 268.995331,258.820374 262.825287,265.338135 
	C259.692932,268.647064 257.929749,266.126343 255.562485,264.925812 
	C252.622711,263.434937 254.357239,261.684418 255.201431,259.975891 
	C256.897949,256.542358 257.268280,253.084732 256.229431,249.059647 
	C253.429657,250.876907 253.927750,255.995728 248.582993,253.418579 
	C253.085480,248.266830 250.856934,243.788589 247.508606,239.450500 
	C247.208252,239.061356 247.035797,238.572220 246.811844,238.125565 
	C243.400009,231.320770 245.312531,224.172318 251.737564,219.709671 
	C256.946686,216.091553 264.595551,217.271408 269.304871,222.757462 
	C273.188995,227.282211 275.137451,232.838028 276.115448,238.626572 
	C278.274353,251.404556 275.882477,263.787933 272.287079,275.994568 
	C270.637329,281.595612 269.316193,287.259155 268.494659,293.026733 
	C267.628265,299.109406 269.459839,303.584747 272.989594,304.594604 
	C276.872223,305.705383 279.724518,303.285034 282.200409,296.766571 
	C282.850708,295.054443 283.399536,293.299011 284.134369,291.624664 
	C286.144836,287.043701 288.183685,282.466736 292.593353,278.700134 
	C298.961151,274.072632 296.774933,266.538605 298.675293,260.385529 
	C296.704132,266.691193 296.747009,273.728577 291.314911,278.897491 
M433.837311,414.324951 
	C433.880035,399.326416 434.451752,384.305054 433.805084,369.336304 
	C433.245178,356.375397 436.646759,345.746429 447.286682,337.880707 
	C449.706787,336.091644 449.732574,334.262756 447.449005,332.172546 
	C443.763885,328.799500 440.228394,325.263062 436.627747,321.797760 
	C429.082336,314.536011 429.098022,314.554840 421.317596,321.456604 
	C417.015350,325.273041 412.524231,328.368378 406.223724,327.986084 
	C385.915100,326.753723 365.573212,327.389618 345.250763,327.542267 
	C338.748627,327.591095 333.742554,325.580841 329.009705,321.444397 
	C321.268860,314.679138 321.053406,314.694397 313.895325,321.894745 
	C309.492584,326.323547 305.481506,331.141663 301.129578,335.967926 
	C301.928406,337.432892 304.231750,338.405334 305.725494,340.154999 
	C310.285553,345.496490 316.281189,349.812836 316.196167,358.124115 
	C315.974548,379.787109 316.047882,401.454437 316.193451,423.118744 
	C316.225861,427.943604 314.732239,431.897369 311.544800,435.355896 
	C308.310242,438.865540 305.080627,442.379730 302.187469,445.523956 
	C306.240967,449.889099 309.897430,454.207520 313.951508,458.113190 
	C322.376312,466.229675 319.407867,466.922852 330.103302,458.713623 
	C333.828094,455.854645 337.227722,452.882263 342.414978,452.917450 
	C363.912598,453.063293 385.411591,452.994781 406.910004,453.042664 
	C411.551147,453.053009 415.759674,454.372955 419.318939,457.509949 
	C421.689331,459.599152 424.180054,461.551910 426.547577,463.644196 
	C428.299438,465.192444 429.911011,465.622040 431.746246,463.756683 
	C436.770782,458.649811 441.833801,453.580627 446.908478,448.523529 
	C448.628082,446.809875 448.935944,445.138184 446.968414,443.439056 
	C443.368439,440.330109 440.647980,436.146545 435.942261,434.591858 
	C435.785858,428.729858 435.785858,428.729858 430.731049,424.712128 
	C433.016602,422.014832 434.368927,418.920441 433.837311,414.324951 
M435.678375,255.219559 
	C428.288391,260.732391 420.606995,265.732269 411.334869,267.402191 
	C407.415497,268.108063 404.269073,270.118683 401.094727,272.246277 
	C394.127747,276.915985 394.099884,280.112000 401.016449,283.966370 
	C401.126862,284.027863 401.138092,284.267303 401.520569,285.307404 
	C395.772095,285.398071 392.034393,290.805511 385.723419,290.447968 
	C388.846222,286.994232 388.530884,282.821381 389.516541,279.036133 
	C390.010864,277.137695 390.652710,275.014313 391.925354,273.637177 
	C394.504852,270.845764 395.874725,268.278687 393.957428,264.450348 
	C393.063324,262.665070 393.892059,260.560089 395.292969,258.893066 
	C400.327972,252.901505 405.289703,246.848190 410.342621,240.871902 
	C413.928406,236.630798 418.679993,233.925156 423.989960,233.088776 
	C434.011200,231.510300 443.041992,227.277191 452.349579,223.706146 
	C469.177246,217.249908 489.034973,223.072418 498.142792,237.007156 
	C504.445251,246.649734 504.283752,262.643524 497.713409,269.935822 
	C492.992096,275.175903 487.458832,279.321106 481.209167,282.700104 
	C472.820374,287.235687 463.941895,290.541748 455.139587,294.070190 
	C448.636963,296.676727 442.283295,299.622742 436.282654,303.225677 
	C430.951782,306.426483 430.751404,308.420563 434.485138,312.830170 
	C437.080902,315.895782 440.092255,318.513489 442.947937,321.306244 
	C445.723694,324.020782 448.155090,324.430359 451.789917,322.605316 
	C466.267517,315.335968 491.005981,321.197052 493.116486,344.919220 
	C494.327545,358.531708 492.081909,370.871460 480.203461,379.635590 
	C479.292969,380.307373 478.272949,381.072449 479.240540,383.570618 
	C487.263123,383.693024 495.699585,384.057800 504.440979,383.278015 
	C504.155060,378.445099 502.260315,374.723145 500.838593,370.867645 
	C495.493286,356.372467 491.809662,341.498383 493.006042,325.958313 
	C493.898010,314.372131 494.002838,302.765350 495.446198,291.169434 
	C498.715424,264.904449 511.923920,245.350754 533.176941,230.448273 
	C536.912842,227.828705 541.675049,227.081314 545.354248,223.629929 
	C540.432861,220.315720 535.717957,217.503906 531.754456,213.645065 
	C523.680298,205.784088 517.464355,196.608994 511.758514,186.947723 
	C506.080994,177.334320 498.358246,176.165344 489.749939,183.128830 
	C486.387756,185.848587 483.254150,188.849335 479.984558,191.685303 
	C466.784454,203.134811 454.230682,215.418716 439.207550,224.567398 
	C429.031555,230.764313 418.099640,235.459091 406.077332,236.154999 
	C400.445801,236.480972 395.791260,237.081299 392.281525,242.142487 
	C390.654968,244.488113 387.856445,246.200821 385.283905,247.663498 
	C382.311829,249.353348 381.186920,251.448303 381.210022,254.888260 
	C381.346710,275.217499 381.242920,295.548279 381.308350,315.878265 
	C381.316193,318.315002 380.294952,321.405853 384.505524,321.963776 
	C391.562683,322.898926 394.831207,321.994873 396.132446,317.989502 
	C399.662445,307.123840 406.490509,298.783051 415.466125,291.956635 
	C426.097046,283.871307 438.238312,278.979462 450.717773,274.643707 
	C459.356262,271.642517 468.060059,268.649384 475.704346,263.410797 
	C480.235565,260.305573 482.783356,253.679581 481.447968,248.948120 
	C480.109833,244.207031 475.063568,240.649887 469.214386,240.188828 
	C462.666748,239.672699 456.583191,241.158127 451.089630,244.638672 
	C446.029510,247.844635 441.178680,251.380890 435.678375,255.219559 
M349.267090,569.904175 
	C347.338409,571.559265 345.421997,573.353455 342.677216,571.470947 
	C341.048218,570.353821 339.805725,571.221558 338.677948,572.236084 
	C334.627533,575.879944 329.850555,577.408447 324.475006,577.342957 
	C321.609375,577.307983 319.660400,578.735657 317.971619,581.113831 
	C327.260406,585.187805 336.979065,586.699402 345.463623,591.485840 
	C353.950684,596.273621 360.567352,603.516846 367.981079,609.564148 
	C370.290680,607.412964 369.642639,605.285767 369.644257,603.376221 
	C369.682556,558.076538 369.676392,512.776794 369.677246,467.477112 
	C369.677277,466.311340 369.625824,465.144257 369.665771,463.980072 
	C369.800262,460.060303 368.137970,458.095490 364.007935,458.289917 
	C360.352234,458.462036 356.646423,458.647186 353.024780,458.254486 
	C343.794159,457.253510 335.674377,458.916382 329.172516,466.204559 
	C327.163544,468.456451 323.948029,469.611267 322.561615,473.068573 
	C329.612213,478.161865 336.133606,483.518860 341.797546,489.868958 
	C349.438232,498.435242 355.173553,507.716217 354.320892,519.805115 
	C354.140717,522.360046 355.105255,524.707886 355.772430,527.108643 
	C359.928497,542.063904 359.626678,556.392578 349.267090,569.904175 
M404.920471,546.479858 
	C399.689941,532.238159 397.035583,517.581299 398.142334,502.385284 
	C399.117279,488.998993 400.555847,475.736603 410.905121,465.543152 
	C412.110565,464.355896 414.192047,463.117828 413.236542,461.009064 
	C412.339905,459.030273 410.178375,458.480499 408.132111,458.449249 
	C401.301605,458.345062 394.458557,458.579346 387.641388,458.248962 
	C382.930695,458.020660 381.153839,459.594971 381.168427,464.457367 
	C381.308929,511.284821 381.265625,558.112793 381.330139,604.940552 
	C381.332428,606.606445 380.628998,608.670898 382.693207,609.789429 
	C383.113892,609.690796 383.534424,609.721924 383.733643,609.526917 
	C394.041656,599.436584 404.905243,590.249512 419.174316,586.077820 
	C422.446167,585.121277 422.204590,582.786194 420.429016,580.167786 
	C413.553528,570.028748 408.627899,558.964417 404.920471,546.479858 
M270.086639,554.413025 
	C274.380707,558.341553 278.669617,562.275696 282.971069,566.196106 
	C285.093414,568.130493 286.971283,568.179932 288.804321,565.668945 
	C291.234863,562.339478 294.668732,560.308044 298.448975,558.825439 
	C305.026886,556.245605 305.090515,555.935059 299.868134,550.909973 
	C293.563080,544.843201 289.190674,537.773987 288.661438,528.813293 
	C288.505737,526.177368 287.175690,524.832092 284.785675,524.394104 
	C279.628632,523.449219 275.663544,520.507324 272.081299,516.932861 
	C268.895477,513.753967 265.670624,510.635071 261.860596,508.188629 
	C260.897217,507.570068 259.942078,506.210480 258.852142,506.722229 
	C253.678879,509.151093 248.419113,507.821320 243.157135,507.495422 
	C242.264053,507.440155 240.848450,507.820892 240.485794,508.460388 
	C237.417450,513.871094 232.449387,515.119751 226.982132,517.433350 
	C221.053314,519.942200 217.416367,519.923401 212.625565,517.017090 
	C211.687836,516.448181 210.419937,516.320557 209.282425,516.205078 
	C206.858215,515.959106 205.116745,517.232849 203.875290,519.143372 
	C202.500504,521.259094 204.336319,522.548584 205.426483,523.891235 
	C207.628799,526.603638 209.984573,529.190796 212.238602,531.862000 
	C217.079697,537.599121 217.069717,537.607544 223.735962,533.806152 
	C233.985107,527.961670 244.528915,529.121521 253.030151,537.283142 
	C258.671326,542.698975 264.076447,548.360657 270.086639,554.413025 
M291.494354,398.427551 
	C275.330872,398.489899 259.165771,398.692169 243.005142,398.506989 
	C239.388168,398.465607 237.659180,399.678070 236.182663,402.794678 
	C227.843903,420.396149 216.523712,435.993164 203.442902,450.333771 
	C196.184921,458.290771 195.951736,458.388763 204.581772,464.635803 
	C209.681259,468.327179 215.819809,469.480469 222.690811,470.683624 
	C220.305847,466.274109 223.938766,461.274475 219.004608,458.584778 
	C218.913055,458.534851 219.553482,457.173004 219.828629,456.414673 
	C222.463272,449.153351 225.545395,442.308197 232.971939,438.436920 
	C234.579803,437.598724 235.450531,435.373718 236.703003,433.821564 
	C241.255432,428.179626 239.416351,420.743958 242.201721,414.442139 
	C244.179779,409.966858 246.207153,407.299408 251.118637,407.698212 
	C253.922089,407.925812 256.679779,408.695129 259.482697,408.955292 
	C268.384735,409.781555 276.292999,412.693542 282.625122,419.284607 
	C286.053009,422.852692 290.214203,425.311310 295.089905,426.255768 
	C299.812469,427.170532 304.020264,428.575195 305.114624,434.343048 
	C308.572540,431.503906 310.298615,428.185730 310.455414,424.488739 
	C310.751617,417.504852 310.570190,410.496857 310.455627,403.501038 
	C310.399261,400.059204 308.424805,398.421295 304.989502,398.442993 
	C300.823578,398.469360 296.657257,398.434967 291.494354,398.427551 
M571.312927,475.186340 
	C558.686340,463.729492 547.472046,450.915863 535.833618,438.303009 
	C546.270264,450.995911 547.388000,465.805786 547.493896,481.371033 
	C547.600647,497.054382 543.407104,511.153900 536.520264,524.871704 
	C534.717102,528.463318 531.930115,531.677124 531.152771,536.112549 
	C535.324341,537.651733 536.855652,534.469360 538.618286,532.421570 
	C550.124756,519.053894 561.507507,505.579712 572.937561,492.146118 
	C580.218140,483.589355 580.223511,483.593933 571.312927,475.186340 
M526.459717,425.831665 
	C527.305542,426.775085 527.654358,428.189362 530.035645,428.956238 
	C523.767517,420.615845 519.103210,412.266388 514.987549,403.633575 
	C513.289612,400.071960 510.851288,399.080811 507.078674,399.112091 
	C488.084503,399.269531 469.088226,399.143829 450.092987,399.204559 
	C437.900574,399.243561 439.401398,397.747894 439.299225,410.849121 
	C439.297943,411.015472 439.310181,411.182312 439.323120,411.348328 
	C439.568146,414.499023 441.064362,415.097046 443.614624,413.413879 
	C456.747711,404.746246 469.888153,411.540649 475.434418,423.522797 
	C477.461823,427.902863 479.659546,432.210327 481.942688,436.463287 
	C483.196625,438.799103 485.082581,440.719055 487.988861,439.204193 
	C490.775604,437.751587 489.871704,435.321259 488.929443,433.094238 
	C487.499664,429.714905 486.230072,426.292023 485.641449,422.645630 
	C484.111664,413.168671 487.601898,408.942505 497.355621,408.716156 
	C510.256287,408.416840 519.563599,414.462830 526.459717,425.831665 
M207.580856,484.216827 
	C203.441757,477.962097 197.906784,474.370270 190.120056,474.653809 
	C188.204208,474.723572 186.257950,474.342682 184.349945,473.442139 
	C181.726395,472.203827 171.075546,481.078156 171.649582,483.890564 
	C171.832153,484.784943 172.613327,485.605011 173.246826,486.352020 
	C178.618286,492.685822 184.081329,498.943237 189.378006,505.338562 
	C191.314697,507.676910 192.991989,507.972534 195.019928,505.630310 
	C197.882721,502.323883 201.555023,501.069824 205.779312,501.909790 
	C212.054214,503.157562 216.562286,500.193878 220.857224,496.223694 
	C222.890350,494.344330 223.117905,492.817932 221.156693,490.809631 
	C217.571823,487.138672 214.129913,483.283203 207.580856,484.216827 
M473.467621,515.464905 
	C473.625793,514.110901 474.882721,512.630615 472.718140,511.265991 
	C467.181427,515.481506 463.483307,520.761169 463.375092,528.011414 
	C463.295074,533.374634 459.460358,538.025513 460.587585,543.615906 
	C460.708496,544.215515 459.987671,545.268921 459.369873,545.684265 
	C456.693695,547.483521 455.913513,549.958618 456.230255,553.019592 
	C456.392029,554.583008 455.846710,556.075317 454.629486,557.053162 
	C452.574738,558.703735 452.353668,560.828369 452.233582,563.262634 
	C451.996552,568.067444 450.303589,572.061401 444.983246,573.305908 
	C443.131775,573.739014 441.749451,574.762329 442.361145,576.775513 
	C443.015289,578.928467 444.716980,577.903564 446.110596,577.509460 
	C460.902527,573.326355 472.271790,564.090820 482.372040,552.972046 
	C483.948456,551.236694 483.387787,550.150757 481.424652,549.151978 
	C480.569885,550.430054 479.920074,551.588562 479.086243,552.594543 
	C478.297180,553.546509 477.890503,555.113525 476.136139,554.821411 
	C472.365234,548.301086 472.365234,548.301086 465.823303,553.665100 
	C462.240387,544.722412 470.640015,542.856689 474.688812,538.019409 
	C473.172546,536.336914 473.797119,533.886108 473.324280,531.983887 
	C472.581604,528.996094 473.906464,525.861206 472.919006,523.633667 
	C471.615601,520.693481 472.191986,518.594238 473.467621,515.464905 
M290.131775,355.800720 
	C285.126617,358.016235 280.009613,360.014984 275.154266,362.520813 
	C271.720825,364.292816 268.320709,366.804535 269.517334,371.425201 
	C270.601715,375.612457 274.318390,376.571716 278.140198,376.820892 
	C280.526672,376.976501 283.302856,377.070557 284.212891,379.446075 
	C286.067719,384.287781 289.867676,383.664368 293.654755,383.637878 
	C296.396820,383.618713 298.716400,383.176422 298.799408,379.729584 
	C298.883453,376.239410 296.368042,376.384674 293.987671,376.249298 
	C290.332672,376.041351 287.375305,375.071960 288.478271,370.300964 
	C286.616455,369.867401 284.979095,369.585754 283.409729,369.089233 
	C282.146393,368.689484 280.793549,368.095184 280.740021,366.497070 
	C280.685303,364.862579 282.052734,364.351471 283.290070,363.824493 
	C291.204773,360.453369 295.250580,354.144165 296.553680,345.935913 
	C296.857056,344.024902 296.985291,342.276093 299.917053,341.205475 
	C297.749512,340.647705 297.446198,339.115845 296.003357,339.292267 
	C295.746246,345.168304 296.377411,351.307739 290.131775,355.800720 
M320.188599,565.876892 
	C319.380219,565.814575 318.452515,565.989258 317.782532,565.652039 
	C313.000275,563.244751 305.926697,564.681702 304.161530,569.369568 
	C303.125885,572.119934 301.555817,573.299500 298.027557,574.479187 
	C300.798553,575.050476 301.920532,576.991699 303.742737,575.407166 
	C308.900238,570.922424 314.907501,569.642761 321.656311,569.639221 
	C328.016449,569.635925 330.902344,566.336853 330.893005,560.355530 
	C327.436432,562.143860 324.492523,564.554749 320.188599,565.876892 
M294.720764,457.735870 
	C300.397034,460.678497 306.073303,463.621155 311.749573,466.563782 
	C307.501404,458.787842 300.848694,453.644073 294.959473,447.395599 
	C291.965302,449.699463 288.611023,450.343079 284.511871,450.818237 
	C287.692017,453.977600 290.819489,455.779266 294.720764,457.735870 
M488.154938,458.869934 
	C488.154938,463.141357 488.154938,467.412750 488.154938,471.684174 
	C489.240601,466.012848 492.862122,461.619476 495.025696,456.667175 
	C498.351624,449.054321 498.783356,445.380005 494.951630,441.676392 
	C492.405304,443.730804 491.479675,447.313690 487.595917,448.928070 
	C492.378632,452.001953 487.267548,454.926361 488.154938,458.869934 
M303.172668,362.598053 
	C302.829773,367.785156 305.300354,371.314819 310.756470,374.604523 
	C309.693481,365.098083 313.763489,355.854401 305.671997,348.421539 
	C307.561279,353.440002 303.686951,357.277985 303.172668,362.598053 
M440.973297,382.521118 
	C444.075439,384.250092 447.139465,384.289215 451.103455,382.068024 
	C445.878662,376.127716 442.708038,369.474701 441.814301,361.707458 
	C438.906097,368.472900 438.572845,375.121155 440.973297,382.521118 
M474.648560,361.098816 
	C477.728943,354.354004 476.906311,348.950836 472.188904,344.943420 
	C468.406281,341.730133 463.036102,341.256195 458.993805,344.029266 
	C462.749939,345.205933 466.539886,345.864594 468.293182,349.971893 
	C469.913666,353.768005 470.452393,358.257202 474.648560,361.098816 
M462.950897,355.375183 
	C459.313873,353.172272 456.818085,354.868652 455.225128,358.037811 
	C453.337585,361.792999 453.611420,365.640381 456.959381,368.465851 
	C459.219727,370.373413 461.956665,370.689178 464.228943,368.392609 
	C464.166901,366.219421 461.841949,365.618347 462.014526,363.372559 
	C463.925751,361.367981 466.844208,359.188782 462.950897,355.375183 
M268.446442,418.038879 
	C264.675171,416.801819 261.445526,413.639923 256.765442,414.609619 
	C258.101746,423.708069 269.395020,420.467285 272.061646,428.055878 
	C273.774475,426.402710 275.873566,427.024323 278.092102,426.309570 
	C275.566345,422.712921 272.733948,420.107819 268.446442,418.038879 
M290.929810,439.160828 
	C288.519470,435.348755 284.671082,435.853027 281.270660,436.565521 
	C278.627136,437.119446 277.510376,439.555450 279.766998,441.837158 
	C282.608521,444.710266 285.931274,446.799377 290.949493,444.798218 
	C286.348511,442.761078 290.365997,441.421051 290.929810,439.160828 
M486.752258,533.194275 
	C483.672852,538.141724 488.339142,541.194214 488.950775,546.151184 
	C492.419434,542.517273 496.138367,540.618164 496.241882,536.013855 
	C494.115936,535.814087 494.547882,538.898315 492.099792,538.055725 
	C491.074951,536.109070 490.602997,533.081848 486.752258,533.194275 
M494.497772,522.113953 
	C496.409363,522.242126 497.975800,524.177795 500.409668,523.110901 
	C501.078339,520.286011 499.491089,519.539978 497.007660,519.307922 
	C491.190552,518.764465 490.348236,519.191406 489.180389,523.598694 
	C490.680328,523.108337 492.226868,522.602783 494.497772,522.113953 
M316.759338,275.591644 
	C316.346375,272.927277 318.091309,270.590332 318.428711,266.722290 
	C312.473236,272.158356 318.622467,278.765839 314.086700,283.914581 
	C318.178650,281.865662 318.274292,285.342163 319.921722,287.599670 
	C319.690460,283.044281 316.034668,280.387817 316.759338,275.591644 
M502.147308,506.347290 
	C504.172302,508.842468 500.627228,512.788391 504.360626,514.853210 
	C503.465210,506.149078 501.220276,497.952393 495.083618,491.194244 
	C497.040894,496.145447 500.969238,500.280884 502.147308,506.347290 
M508.163025,493.520599 
	C514.337585,488.415100 515.443909,480.932404 517.376709,473.832703 
	C515.208862,480.770782 512.164124,487.276825 508.163025,493.520599 
M504.255951,467.705353 
	C502.273621,470.747986 500.291290,473.790588 497.842682,477.548889 
	C501.203583,475.765900 502.353485,473.315308 503.730927,471.067627 
	C505.136993,468.773285 505.833527,465.941345 509.074310,464.786774 
	C505.467987,462.376953 505.484222,465.570099 504.255951,467.705353 
M310.648682,277.448334 
	C309.834198,273.877777 309.244537,270.285980 309.765198,266.569244 
	C306.577179,271.986511 311.886841,277.875580 308.485657,283.288513 
	C310.556732,282.097137 310.697815,280.203979 310.648682,277.448334 
M310.256042,308.721649 
	C310.140656,309.020813 310.002502,309.314728 309.930756,309.624054 
	C309.917847,309.679749 310.206299,309.901520 310.308533,309.873657 
	C313.421875,309.026123 315.725098,306.897552 318.906281,305.048981 
	C314.528259,303.640106 312.744446,306.360046 310.256042,308.721649 
M302.273865,275.456421 
	C301.887512,280.070282 300.122528,283.611542 294.169281,284.676086 
	C300.880035,284.429718 302.928619,281.865479 302.273865,275.456421 
M510.637909,527.518738 
	C510.693420,529.205505 511.269470,530.325867 513.300781,529.969971 
	C514.585022,527.488464 513.336304,525.671265 511.722015,523.636292 
	C511.398590,524.897644 511.135468,525.923706 510.637909,527.518738 
M322.754547,540.585754 
	C323.542969,541.449951 324.663879,541.836548 325.098755,540.608582 
	C325.827118,538.551941 324.733063,537.221375 322.729889,536.653809 
	C320.864044,537.737549 321.899475,538.929260 322.754547,540.585754 
M326.586945,284.680603 
	C326.489624,282.326416 328.202362,281.855927 331.036469,281.765717 
	C328.585388,280.697449 327.159119,280.075806 325.161407,279.205139 
	C326.189728,282.010895 325.746460,284.348694 325.944824,286.664825 
	C326.123047,286.199127 326.301270,285.733429 326.586945,284.680603 
z"/>
<path fill="#000000" opacity="1.000000" stroke="none" 
	d="
M184.013763,699.990601 
	C173.780396,691.095154 164.769882,681.524963 156.671417,671.105347 
	C151.585556,664.561768 152.494659,659.967773 159.339050,655.199585 
	C164.372772,651.692749 169.204605,647.896118 174.442169,643.993347 
	C172.068253,640.386230 168.591385,638.678589 165.489243,636.655151 
	C127.385773,611.802185 96.258751,580.049744 71.496376,541.959106 
	C61.385571,526.406128 52.649597,510.101288 46.244881,492.712769 
	C41.143875,478.863770 39.838036,464.203400 39.477253,449.510193 
	C39.435539,447.811493 39.074963,445.794525 41.497292,443.945007 
	C50.820629,453.197205 52.056808,467.457428 61.594204,477.126892 
	C65.189117,469.494324 67.024361,461.552399 70.742455,454.390778 
	C74.512215,447.129578 78.843819,440.628174 87.875328,438.988617 
	C88.003159,439.669434 88.315819,440.252777 88.141762,440.563354 
	C80.837891,453.596222 84.537689,466.311066 90.223000,478.340424 
	C102.126396,503.526459 116.565414,527.076538 134.687927,548.529724 
	C148.634155,565.039124 163.463760,580.344971 180.475494,593.591553 
	C193.743439,603.922974 207.783798,613.150085 221.658737,622.623413 
	C226.425812,625.878235 231.187286,629.389038 234.588074,634.277771 
	C238.534256,639.950562 237.896484,642.811951 232.188904,646.585327 
	C227.494690,649.688782 222.047012,651.574158 217.524979,655.439819 
	C219.470718,658.935791 222.579834,660.929138 225.426361,663.054688 
	C246.196335,678.563477 269.421387,688.935364 294.096313,696.635864 
	C321.724640,705.258057 350.098358,707.996277 378.750397,708.535095 
	C398.940033,708.914795 418.786560,705.450439 438.551025,701.425842 
	C472.570038,694.498596 502.971344,679.611328 531.430847,660.250122 
	C532.115234,659.784546 532.736267,659.217712 533.344788,658.652771 
	C533.575317,658.438782 533.686462,658.096375 534.020569,657.523499 
	C533.182861,654.883789 530.630554,653.805542 528.444336,652.464050 
	C524.329468,649.939209 519.990051,647.763367 515.981079,645.087402 
	C510.832092,641.650452 510.347046,638.824768 513.943787,633.902710 
	C518.841309,627.200745 525.531738,622.449402 532.406799,618.060120 
	C560.594788,600.064392 586.900208,579.913879 608.847229,554.361206 
	C629.044800,530.845337 645.810608,505.191833 659.010620,477.189758 
	C662.372498,470.057953 663.917175,462.394653 664.727539,454.559143 
	C665.319824,448.832764 662.467102,444.035675 660.190063,438.393188 
	C668.795166,439.336212 672.965088,444.711304 676.526611,450.799652 
	C680.421021,457.457092 682.646851,464.817200 685.231201,472.021454 
	C685.720825,473.386444 685.786804,474.955078 687.313538,476.079742 
	C696.882080,467.041870 697.897400,452.606964 707.045776,443.459106 
	C709.623413,444.841766 709.322571,446.664948 709.290833,448.261139 
	C708.937012,466.020874 706.697571,483.482574 699.479797,499.886078 
	C687.735596,526.576355 672.153687,550.859741 653.524475,573.323730 
	C632.705933,598.427856 608.419312,619.459351 581.224426,637.279785 
	C580.110596,638.009766 579.034668,638.799438 577.960754,639.588074 
	C575.157166,641.646851 574.828552,643.591980 577.959595,645.788086 
	C581.908813,648.557983 585.625732,651.659729 589.581543,654.419373 
	C596.711243,659.393311 597.330383,663.707153 591.951721,670.674316 
	C571.430054,697.256714 545.490051,717.230042 515.991760,732.787170 
	C485.186707,749.033630 452.308746,758.614136 417.856171,763.382690 
	C383.382599,768.154053 349.075378,766.978333 314.974701,760.889954 
	C291.340118,756.670288 268.515076,749.534668 246.462402,739.726807 
	C223.708328,729.607056 203.295837,716.086487 184.013763,699.990601 
M256.603668,738.785156 
	C262.005707,740.948486 267.309143,743.411621 272.825958,745.226013 
	C305.818604,756.077209 339.817657,761.090332 374.445679,761.565796 
	C393.247559,761.823975 411.936920,759.823242 430.485229,756.457825 
	C449.019592,753.094849 467.276001,748.854004 484.754059,741.687744 
	C485.817505,741.251709 487.461273,741.309998 487.363647,739.353394 
	C480.519501,738.589600 473.757385,737.264709 466.991028,737.242676 
	C460.428253,737.221191 454.118622,737.656799 449.352844,730.556091 
	C449.352844,732.769653 449.338654,733.590881 449.358124,734.411255 
	C449.369934,734.909912 449.372345,735.421875 449.485382,735.902771 
	C449.874237,737.557373 450.363739,739.213501 448.374573,740.253601 
	C446.565155,741.199890 445.258148,740.219238 443.843567,739.220154 
	C440.155212,736.614990 437.735931,732.328369 433.184845,730.696472 
	C431.532990,733.516479 433.211060,735.896118 433.230682,738.315674 
	C433.250763,740.786682 433.086609,743.629578 430.345062,743.957275 
	C426.561859,744.409546 422.720947,747.150330 418.802155,744.312439 
	C417.835144,743.612183 417.018280,744.172974 416.081970,744.676270 
	C406.409149,749.875977 400.936829,746.614075 400.628174,735.654602 
	C400.549225,732.850037 401.463715,729.852417 399.711395,726.925171 
	C397.591980,728.225403 397.359283,729.993652 397.361572,731.846924 
	C397.365906,735.346069 397.415283,738.845154 397.419617,742.344299 
	C397.422180,744.388794 398.575073,746.992920 395.617981,747.870850 
	C393.023041,748.641357 391.881348,746.317383 390.427216,744.767761 
	C387.796753,741.964478 386.302612,738.061523 382.525116,736.145691 
	C380.437775,739.406128 381.939240,743.040161 380.484344,746.107483 
	C379.495422,748.192322 377.991028,749.352905 375.734344,748.616028 
	C373.573212,747.910339 373.967804,746.139648 374.525696,744.449402 
	C374.838379,743.502014 375.298065,742.524841 375.291962,741.563599 
	C375.261292,736.743896 378.622345,731.540039 374.677002,727.194397 
	C371.403473,723.588745 373.578186,722.737488 376.565155,721.969055 
	C379.552124,721.200562 381.950653,721.910950 383.936279,724.657654 
	C386.146271,727.714722 387.541504,731.585693 391.749481,733.854675 
	C391.749481,731.224060 391.684082,729.236023 391.763306,727.253723 
	C391.921600,723.292297 392.979980,720.259705 398.012268,721.157227 
	C399.096954,721.350708 400.299225,720.904541 401.444641,720.734680 
	C405.409332,720.146851 407.446686,721.590759 407.341736,725.859680 
	C407.243713,729.847656 407.353027,733.853577 407.645782,737.831360 
	C407.748474,739.227112 408.316406,740.952332 410.109131,741.228149 
	C411.751282,741.480896 412.973450,740.384827 413.861603,739.159973 
	C416.168762,735.978210 416.093964,732.310059 415.862183,728.602478 
	C415.334045,720.155579 415.361969,720.158691 423.182709,718.476807 
	C423.830658,718.337524 424.475281,718.126587 425.081512,717.858582 
	C428.486847,716.353516 431.063873,717.473511 433.539032,720.034851 
	C435.881287,722.458618 437.955994,725.326355 441.347900,726.809753 
	C442.001526,724.757751 441.601929,723.136597 441.263763,721.517944 
	C440.748627,719.052307 440.039307,716.496094 442.373779,714.564087 
	C444.953156,712.429321 446.888062,714.781372 449.164124,716.159058 
	C452.397217,711.432861 456.801025,708.665405 462.294373,709.045044 
	C465.484161,709.265503 467.764435,708.906860 470.378937,706.844604 
	C475.222321,703.024292 478.006226,704.229553 479.603760,710.085938 
	C480.608215,713.768250 481.097565,717.609070 482.884979,721.054260 
	C484.569305,724.300781 486.387848,724.161377 488.414001,721.307678 
	C489.658508,719.554810 489.736847,717.607727 489.778259,715.589783 
	C489.855927,711.807495 487.986633,708.523804 487.135406,704.980957 
	C486.549622,702.542847 486.115967,700.088623 489.125549,699.203308 
	C492.157990,698.311218 492.531311,701.052856 493.308380,702.995911 
	C495.126831,707.542664 495.889252,712.575623 499.243988,716.505554 
	C500.764221,715.405090 500.529785,713.986755 500.623322,712.716187 
	C501.001984,707.572998 501.383759,702.429016 501.653046,697.279419 
	C501.775635,694.935730 502.365021,692.960083 504.768188,692.114807 
	C507.028717,691.319763 508.129913,693.158020 509.275421,694.480408 
	C511.455170,696.996643 513.331238,699.783569 515.586792,702.223938 
	C517.294800,704.071777 518.815613,706.504028 521.910706,706.415894 
	C522.754089,700.831177 519.649963,693.707031 515.889465,692.285339 
	C512.207703,690.893433 511.945465,689.448364 514.944824,686.963196 
	C517.826843,684.575317 520.601379,683.894470 523.851318,686.664001 
	C526.637878,689.038757 529.391785,691.707153 533.344238,692.656494 
	C534.320312,687.732971 532.332520,683.360596 532.690552,678.868896 
	C532.835571,677.050049 533.405212,675.593689 535.254761,675.006287 
	C537.265564,674.367615 538.349121,675.604248 539.244629,677.139893 
	C541.426514,680.881592 543.549072,684.660583 545.836731,688.336609 
	C546.662170,689.662842 547.400269,691.484924 549.590515,690.966370 
	C551.083191,690.613037 552.739136,690.083069 553.499023,691.906860 
	C554.282776,693.787598 552.728394,695.000488 551.598083,696.168762 
	C548.466064,699.406128 545.924377,699.301025 542.750549,695.907837 
	C542.011414,695.117554 541.603455,693.738953 539.787781,694.437195 
	C538.907532,696.173462 539.475342,698.198608 539.328674,700.133850 
	C539.206543,701.745544 539.727905,703.661072 537.850708,704.576233 
	C536.203491,705.379395 535.094727,703.959534 533.843445,703.215698 
	C532.624084,702.490845 531.622803,701.049133 529.863037,701.893127 
	C528.758728,703.284546 529.356995,704.787842 529.643127,706.208374 
	C529.971802,707.840210 529.634277,709.102234 528.365601,710.225281 
	C522.941772,715.026367 519.586182,715.278870 514.021851,710.551331 
	C511.087036,708.057861 508.222504,709.008850 507.616516,711.613464 
	C506.295441,717.291870 505.647095,722.933899 499.238708,725.344666 
	C500.065430,729.712036 496.628662,732.573914 494.565369,737.368958 
	C533.858093,720.693787 566.454590,697.595703 590.980896,663.515869 
	C587.732788,660.614624 584.957092,661.061584 582.271179,662.042664 
	C578.207825,663.526855 574.207581,665.189941 570.211670,666.851868 
	C562.344299,670.123840 554.953247,670.758057 547.831970,664.618530 
	C544.687195,661.907288 541.377197,658.435120 536.087830,662.443298 
	C489.941925,697.411865 437.050964,712.499146 379.917480,713.927124 
	C354.564911,714.560730 329.379547,711.706116 304.759705,705.232849 
	C274.054108,697.159546 245.292648,684.864868 219.946823,665.340942 
	C210.877136,658.354492 210.552277,658.006714 201.505325,665.172180 
	C193.739990,671.322754 186.187546,671.112671 177.761688,667.296143 
	C172.948425,665.115906 168.148819,662.604614 162.704300,662.247437 
	C161.248291,662.151917 159.546844,662.034241 158.766083,663.721436 
	C158.082382,665.198914 159.284012,666.162292 160.001617,667.265991 
	C164.579025,674.306335 170.431915,680.267517 176.387207,686.068298 
	C199.529617,708.610291 225.676910,726.660645 256.603668,738.785156 
M67.925041,526.621826 
	C76.205978,541.104675 86.162361,554.374817 96.383217,567.549927 
	C119.062317,596.784302 147.330261,619.433838 178.238373,639.154297 
	C186.788803,644.609741 195.103821,650.308533 200.743027,659.546204 
	C209.168686,654.622864 217.497971,649.793091 225.789490,644.899231 
	C232.606552,640.875610 232.725372,638.993958 227.033157,633.491211 
	C217.040588,623.831116 204.467575,617.935486 193.091736,609.993896 
	C194.374176,612.575500 195.832428,614.957947 194.856918,617.846252 
	C205.437943,618.326904 210.893066,625.690979 206.946869,633.738159 
	C204.472900,638.783203 200.212845,642.056335 194.728790,643.214539 
	C187.622864,644.715210 182.999237,641.808044 180.537781,634.830811 
	C180.054382,633.460510 180.013702,631.674133 178.143875,631.365234 
	C172.387711,630.414734 167.744354,627.980591 165.339539,622.299866 
	C165.184250,621.933044 164.562119,621.729431 164.123001,621.522217 
	C156.468475,617.909790 156.325546,617.502014 159.877075,609.217712 
	C157.147812,606.555847 157.147858,606.555969 150.841370,608.953613 
	C146.880386,610.459595 142.813080,608.682495 141.993896,604.690186 
	C141.515182,602.357117 141.906662,599.845520 141.906662,597.056274 
	C140.714340,597.916138 139.552734,598.557495 138.638885,599.451965 
	C136.424652,601.619141 134.450119,600.300354 132.998367,598.779541 
	C131.184998,596.879883 133.090836,595.504883 134.397842,594.252075 
	C135.850189,592.859985 137.346848,591.514099 138.824203,590.148132 
	C127.770576,593.231750 124.133713,592.204224 117.654381,584.851807 
	C115.136253,581.994324 115.886787,580.336182 118.352226,578.322510 
	C121.703102,575.585754 124.960075,572.732971 128.226013,569.893982 
	C129.341629,568.924194 130.543182,568.007935 130.424149,566.214905 
	C130.088394,561.157837 132.906540,562.562622 135.288696,564.076660 
	C140.621033,567.465759 144.865936,571.820740 146.465683,578.458740 
	C148.944107,577.814087 150.990097,578.790649 153.041016,579.882812 
	C159.065155,583.091003 162.293488,587.268677 161.165695,591.210266 
	C159.524994,596.944397 154.475876,596.816406 149.542496,597.092285 
	C149.351364,598.874146 147.959991,600.420654 149.433060,602.663330 
	C155.936752,600.450623 162.487228,598.184937 169.066650,596.006714 
	C170.991074,595.369507 173.009552,594.931152 174.514984,596.973083 
	C176.051910,599.057861 174.814850,600.668945 173.675781,602.381104 
	C170.867630,606.601807 167.129501,610.246826 165.592957,615.398193 
	C170.802536,607.860718 178.084305,605.117371 188.223083,606.172852 
	C185.720337,604.123535 184.263260,602.846375 182.721390,601.681396 
	C171.161880,592.947449 160.255188,583.530029 150.090256,573.142090 
	C125.893745,548.414673 105.648361,520.952576 90.368355,489.865936 
	C85.735374,480.440308 81.233566,471.032715 79.830063,460.423248 
	C79.433701,457.427032 80.222824,454.203949 78.717606,451.219818 
	C76.685944,452.320343 76.094040,454.100647 75.279297,455.719513 
	C71.597588,463.034943 69.114311,470.806976 66.556824,478.552124 
	C65.843620,480.711975 65.690948,483.562531 62.916000,483.998383 
	C60.215767,484.422546 59.060753,481.819153 57.580418,480.092224 
	C51.906460,473.473206 48.687729,465.426270 44.639572,457.784058 
	C44.831024,462.110687 45.209423,466.364990 45.794922,470.590607 
	C48.595013,490.799713 57.581371,508.589783 67.925041,526.621826 
M704.215332,458.944946 
	C704.289429,458.210663 704.937012,457.459015 703.984314,456.557648 
	C700.061584,464.307098 696.963196,472.432861 691.311218,479.087830 
	C689.832397,480.829071 688.635437,483.439697 685.988464,483.050354 
	C683.009033,482.612030 682.704834,479.566895 682.053284,477.241180 
	C679.847107,469.365936 676.877441,461.788300 673.451111,454.381042 
	C672.666992,452.685944 672.010498,450.749329 669.597168,450.314087 
	C669.035889,459.272461 668.214722,467.901093 664.544861,475.869568 
	C657.017456,492.213867 648.877136,508.222595 638.778076,523.192017 
	C623.141235,546.370117 605.103516,567.436401 584.184082,585.992004 
	C568.204773,600.165771 550.775696,612.394836 532.737976,623.778748 
	C528.052002,626.736084 523.921692,630.368896 520.224426,634.438599 
	C516.608459,638.418823 516.915649,640.400146 521.436707,643.151489 
	C527.267822,646.700256 533.180481,650.123291 539.157715,653.419678 
	C541.906372,654.935486 544.140442,658.058167 547.378296,657.834595 
	C550.883362,657.592529 551.453796,653.449219 553.434448,651.176025 
	C557.856812,646.100525 564.451172,643.760986 568.047485,639.249023 
	C563.759644,634.571960 559.727844,629.918457 555.410400,625.546997 
	C552.073364,622.168091 549.071899,624.271729 546.360718,626.785767 
	C543.245361,629.674622 543.340942,632.352539 546.853882,634.946411 
	C549.528931,636.921509 552.136475,639.010376 554.602722,641.238220 
	C556.230713,642.708862 557.749756,644.506653 555.629150,646.772461 
	C553.755859,648.773987 552.099304,647.760376 550.432251,646.358948 
	C547.373535,643.787598 544.281189,641.255859 541.177612,638.738647 
	C539.639526,637.491150 537.897766,636.661072 536.346375,638.529358 
	C533.462524,642.002319 531.176392,640.408813 529.058655,637.795532 
	C526.465088,634.594910 528.533936,632.545288 531.122620,630.931335 
	C535.237244,628.366089 538.600708,624.524353 542.771667,622.443970 
	C547.552673,620.059265 551.268250,612.913818 557.709045,617.553955 
	C559.792297,607.752991 570.386414,606.285278 574.173096,598.159485 
	C577.290894,601.465271 576.795898,604.322937 575.260742,606.339722 
	C572.431580,610.056519 574.336243,612.213074 576.754639,614.869629 
	C580.311096,618.776428 586.063721,620.964050 586.265442,627.443542 
	C587.196350,627.159546 587.742859,627.133850 588.104858,626.862183 
	C610.500305,610.053833 632.000488,592.440735 649.557251,570.195496 
	C662.173828,554.209656 674.160950,537.981934 684.109741,520.195740 
	C694.702881,501.257629 702.975891,481.659576 704.215332,458.944946 
M173.554077,659.795471 
	C179.179199,660.999329 183.700455,665.735779 189.962540,664.912170 
	C191.715500,664.681702 193.848526,665.280151 194.864227,663.281433 
	C195.805344,661.429504 194.856369,659.606628 193.747864,658.201721 
	C190.332809,653.873413 186.000198,650.515747 181.544235,647.328857 
	C180.716019,646.736572 179.751328,646.401855 178.767502,647.084595 
	C174.371964,650.134888 169.456757,652.544373 165.896790,657.070251 
	C168.471985,658.007263 170.641068,658.796509 173.554077,659.795471 
M573.777954,648.674500 
	C571.660706,647.576172 569.734680,644.988586 567.078064,646.749268 
	C562.520020,649.769836 558.160889,653.210938 555.021545,657.715454 
	C552.276489,661.654175 553.602417,663.921692 558.518860,663.960449 
	C567.099365,664.028076 573.801086,658.819092 581.586182,656.283875 
	C579.863647,652.279541 576.813599,651.008972 573.777954,648.674500 
M572.595337,634.731812 
	C577.638672,636.526184 579.154907,631.819153 582.907654,629.631592 
	C577.331665,624.397522 572.856079,618.934814 566.597656,614.945679 
	C565.436462,620.515381 565.436462,620.515381 560.611450,620.647217 
	C563.616699,625.987488 569.885864,628.397644 572.595337,634.731812 
M181.304367,611.969238 
	C177.690781,613.392944 174.406693,615.159058 172.942032,619.138123 
	C172.242615,621.038208 172.216858,622.638733 173.925095,624.026184 
	C177.918121,627.269043 185.313248,625.575867 187.387070,620.913513 
	C189.984833,615.073303 188.261765,612.143311 181.304367,611.969238 
M460.326294,714.450317 
	C454.802429,716.375854 453.445404,722.783264 457.275604,728.643127 
	C458.784485,730.951538 460.773651,732.294006 463.548492,731.541809 
	C466.548615,730.728516 467.794769,728.346252 467.592621,725.460022 
	C467.265503,720.789612 465.665253,716.720093 460.326294,714.450317 
M197.566467,634.071716 
	C199.925812,631.629211 203.735321,629.066223 200.674347,625.457947 
	C197.928055,622.220581 194.542465,625.079590 191.827744,626.827515 
	C187.758194,629.447876 185.716553,634.307068 187.901215,636.261230 
	C191.433411,639.420776 194.264526,636.682861 197.566467,634.071716 
M134.573303,573.322021 
	C131.080368,576.568481 126.978416,579.166138 123.915024,583.105774 
	C126.296898,586.380737 129.395813,586.325195 132.400238,584.963440 
	C135.809738,583.418030 138.827240,580.913879 139.266068,577.017822 
	C139.497818,574.960022 138.483612,572.272400 134.573303,573.322021 
M488.096771,728.967346 
	C482.124725,731.897583 478.734924,727.832581 475.477325,723.343262 
	C473.888947,726.317627 473.105560,728.591370 472.926636,731.528503 
	C479.519745,733.265137 485.946350,733.800842 492.039093,730.158325 
	C493.878052,729.058838 495.619843,727.380188 494.385529,724.127930 
	C492.277557,725.804321 490.515717,727.205444 488.096771,728.967346 
M426.690979,730.758484 
	C426.510590,728.161560 427.152344,725.052124 422.419464,724.454285 
	C422.443909,729.852478 422.628387,734.663879 425.090698,739.822510 
	C427.636993,736.838135 426.575134,734.130676 426.690979,730.758484 
z"/>
<path fill="#000000" opacity="1.000000" stroke="none" 
	d="
M75.414856,160.445679 
	C87.084038,144.382462 99.003265,128.964523 111.606903,114.095100 
	C114.735435,110.404144 115.211807,107.602425 112.295265,103.303444 
	C101.615829,87.561913 102.267303,85.634209 118.632347,76.402039 
	C152.247635,57.438354 188.249252,44.801228 225.618637,35.693428 
	C246.651947,30.567122 267.910278,26.516800 289.378967,24.055359 
	C323.480530,20.145521 357.695465,18.666485 392.073517,20.348127 
	C413.871399,21.414394 435.622314,22.695097 457.210419,25.767130 
	C506.552673,32.788651 554.391174,45.228920 599.626221,66.621925 
	C612.254089,72.594040 625.382080,77.587173 637.065369,85.438530 
	C639.136658,86.830475 641.230835,88.216263 643.144531,89.809067 
	C646.877075,92.915825 647.755005,96.622360 644.877930,100.799309 
	C642.611450,104.089813 640.370178,107.409805 637.894409,110.540131 
	C635.896118,113.066742 636.039612,115.126236 637.986938,117.651573 
	C649.072693,132.027802 660.280640,146.315170 670.377441,161.427490 
	C675.046082,168.415329 680.296692,174.732468 681.140503,183.968445 
	C681.654358,189.593094 685.856934,194.857437 688.265442,200.343842 
	C689.207764,202.490234 690.660645,204.602280 689.335022,207.463165 
	C688.086792,204.860443 686.824585,202.264297 685.593689,199.653427 
	C683.869446,195.996170 681.511902,192.747406 678.713623,189.891968 
	C676.685547,187.822495 674.710388,186.127640 675.400696,182.690628 
	C675.871399,180.347107 673.499023,178.955505 672.227539,177.269684 
	C669.081482,173.098557 664.908569,170.034012 660.759216,166.882034 
	C659.927124,167.661316 660.829346,167.999268 661.120850,168.359390 
	C675.388428,185.986694 682.488403,207.599960 694.558472,226.888885 
	C691.478699,227.884674 690.230957,226.080841 689.364258,224.836685 
	C685.869873,219.819962 680.689514,218.231277 675.145386,217.687210 
	C671.668213,217.345963 670.260803,215.815628 670.699951,212.584595 
	C671.364502,207.695206 668.950623,204.468399 665.562683,201.371201 
	C647.936218,185.257553 626.562805,176.216995 604.456177,168.398361 
	C593.850464,164.647354 582.850342,163.023682 571.858337,161.199387 
	C570.382507,160.954453 568.879761,160.758942 567.458252,160.318451 
	C559.426392,157.829575 557.580994,153.119827 561.871155,145.905197 
	C563.558960,143.066895 565.500732,140.379623 567.895142,136.765869 
	C530.742676,122.436600 492.752380,113.739510 453.928162,109.518127 
	C362.627228,99.590919 272.745605,105.724861 184.541580,135.991760 
	C186.422821,139.162064 187.905014,141.667206 189.394211,144.168213 
	C195.565521,154.532608 192.773041,160.784439 180.693832,161.948471 
	C163.850204,163.571579 147.535736,167.168564 131.671692,172.965714 
	C113.588394,179.573853 96.312981,187.625900 81.545753,200.342789 
	C77.605247,203.736176 74.299942,207.118820 75.114029,212.943512 
	C75.498566,215.694824 74.295273,218.161621 71.124771,218.162277 
	C64.212791,218.163696 58.534485,220.505798 54.051994,225.836594 
	C53.298359,226.732849 52.372952,228.016037 49.644081,227.101456 
	C62.786987,206.693649 71.224670,183.879181 86.757118,165.119781 
	C81.049263,167.971848 76.764816,172.306931 72.856926,177.069489 
	C72.645775,177.326813 72.256920,177.580490 72.250565,177.843124 
	C72.034737,186.766785 63.498993,190.688263 60.260338,197.799713 
	C58.902248,200.781769 57.234421,203.622772 55.616043,206.701767 
	C53.733860,205.432312 54.569382,204.194412 55.084469,203.098862 
	C56.997589,199.029770 59.023067,195.013168 60.912430,190.933365 
	C63.125904,186.153763 65.442894,181.606155 66.148743,176.051910 
	C66.902321,170.122070 71.813164,165.659698 75.414856,160.445679 
M377.067932,99.127625 
	C395.336212,100.231735 413.644928,99.781975 431.924408,101.501831 
	C453.978455,103.576828 475.895813,106.335144 497.586395,110.726547 
	C519.765564,115.216858 541.766907,120.491028 562.887695,128.811340 
	C575.264038,133.686859 587.555115,138.786240 599.792053,144.001999 
	C602.267517,145.057129 603.571045,144.668442 605.248291,142.726364 
	C616.899170,129.235474 627.471680,114.900673 638.370117,100.819084 
	C641.072693,97.327171 640.990112,94.886536 637.011292,92.352585 
	C627.572266,86.341278 617.571655,81.478661 607.457642,76.751122 
	C573.742310,60.991638 538.922913,48.434921 502.640900,40.026161 
	C471.308960,32.764648 439.546783,28.548214 407.445282,27.031290 
	C367.821350,25.158903 328.258423,25.769258 288.840332,30.807320 
	C261.251892,34.333427 234.162521,40.165249 207.286346,47.307682 
	C174.743759,55.955975 143.992493,68.675537 114.864372,85.504692 
	C110.726875,87.895180 110.463066,90.330582 112.915321,93.923622 
	C123.046982,108.768570 133.068909,123.684013 143.582382,138.271378 
	C147.025925,143.049286 150.168488,143.396179 155.176788,141.175354 
	C181.418396,129.539093 208.660507,120.852676 236.580627,114.244682 
	C265.447174,107.412689 294.683655,102.985786 324.258240,100.806023 
	C341.526611,99.533279 358.809021,98.482109 377.067932,99.127625 
M105.012726,131.475021 
	C98.511932,140.279465 90.647652,148.070267 84.933388,158.326599 
	C89.134048,156.868973 93.649239,154.032333 96.345367,157.947250 
	C99.371017,162.340652 94.559891,165.479218 92.136299,168.569611 
	C86.894897,175.253052 81.467377,181.788895 77.151451,189.135727 
	C75.948212,191.183960 74.443359,193.294113 76.160133,196.200729 
	C107.732185,170.772385 144.674652,160.095398 183.905930,155.106476 
	C181.409882,154.375061 178.992096,154.079575 176.574509,154.081223 
	C170.079880,154.085663 163.584854,154.190567 157.090897,154.306549 
	C151.871811,154.399765 147.628113,152.236343 144.455078,148.319061 
	C137.328049,139.520340 130.503403,130.485077 124.384262,120.938362 
	C122.890182,118.607391 121.447464,116.197617 118.859360,114.473930 
	C114.252586,120.118927 109.848351,125.515747 105.012726,131.475021 
M620.770447,132.251648 
	C616.071289,137.870407 611.434326,143.542755 606.653381,149.091034 
	C602.787476,153.577454 597.800781,155.201202 591.897705,154.751083 
	C584.018677,154.150269 576.115906,153.860153 568.223328,153.436600 
	C568.126465,153.909348 568.029602,154.382111 567.932739,154.854874 
	C605.289795,160.984238 640.645264,171.951889 670.164795,197.228592 
	C671.387390,193.826660 670.176514,191.651047 668.882385,189.477066 
	C664.270752,181.730225 658.853516,174.553757 653.351135,167.434387 
	C651.759460,165.374969 650.443909,162.904404 652.065491,160.563797 
	C653.807861,158.048935 656.579224,159.202957 658.968506,159.880997 
	C660.182617,160.225540 661.337280,160.779709 663.372070,161.570847 
	C653.756287,146.024536 642.359314,133.006577 632.036560,119.006767 
	C627.380432,122.641861 624.976807,127.752983 620.770447,132.251648 
M179.750778,140.912079 
	C178.735779,139.427582 177.541016,138.488373 175.585175,139.231735 
	C168.391968,141.965683 161.184998,144.663391 153.983200,147.374741 
	C164.117279,149.418823 174.015686,147.555374 184.222000,148.157349 
	C183.398285,145.190155 181.735504,143.345886 179.750778,140.912079 
M592.652710,148.935593 
	C593.874084,149.007233 595.095459,149.078873 597.549011,149.222794 
	C591.315308,146.383102 586.289185,143.880188 581.099854,141.780624 
	C573.718323,138.794128 571.420410,139.948303 567.533203,148.936005 
	C575.986755,148.936005 583.913757,148.936005 592.652710,148.935593 
z"/>
<path fill="#000000" opacity="1.000000" stroke="none" 
	d="
M512.105835,774.261230 
	C512.356506,773.429260 512.456299,772.917358 512.719299,772.511169 
	C514.216675,770.198792 515.457520,766.976624 518.789917,767.613831 
	C522.463623,768.316406 520.991943,771.827698 521.262756,774.260803 
	C521.384521,775.354614 522.123169,776.482300 520.986572,778.060181 
	C519.098328,773.869812 513.125977,781.867737 512.105835,774.261230 
z"/>
<path fill="#000000" opacity="1.000000" stroke="none" 
	d="
M694.723145,769.788025 
	C696.014771,767.917664 696.580383,765.855103 698.666443,765.203857 
	C701.645813,768.383240 702.181824,769.631714 702.727600,774.941650 
	C698.909302,773.474731 695.646729,774.692932 692.417786,777.311462 
	C691.552795,774.033691 693.525940,772.210571 694.723145,769.788025 
z"/>
<path fill="#000000" opacity="1.000000" stroke="none" 
	d="
M667.801392,773.847656 
	C667.215332,775.207275 666.231873,775.445374 665.306396,775.820923 
	C663.595337,776.515198 662.199829,778.998108 660.055725,777.218140 
	C658.145691,775.632568 659.023804,773.513489 659.971680,771.736267 
	C661.163269,769.502197 662.703674,767.120911 665.577820,767.550659 
	C669.260132,768.101135 668.155762,771.110413 667.801392,773.847656 
z"/>
<path fill="#000000" opacity="1.000000" stroke="none" 
	d="
M622.627808,770.731934 
	C625.498779,767.763794 629.509460,766.561768 631.107483,762.421143 
	C631.975647,767.518066 628.645569,771.965149 630.609802,777.119995 
	C626.888916,775.929749 626.042725,773.809753 627.547485,770.500244 
	C623.204834,772.289246 623.057007,772.639038 624.127625,777.153503 
	C620.294434,776.158142 620.165955,775.701050 622.627808,770.731934 
z"/>
<path fill="#000000" opacity="1.000000" stroke="none" 
	d="
M611.376709,768.755981 
	C614.749634,766.187378 614.876770,769.491638 616.069702,771.130005 
	C617.361084,769.632751 617.064758,768.266785 615.944031,767.162659 
	C613.465637,764.721191 611.069214,767.092773 607.584351,767.814941 
	C610.005798,764.448303 612.304077,763.037720 615.449280,764.333618 
	C617.874390,765.332825 619.740112,767.389160 618.990173,770.213684 
	C617.597473,775.459045 613.016357,772.460510 610.277222,774.053345 
	C608.718567,771.439697 610.481384,770.372620 611.376709,768.755981 
z"/>
<path fill="#000000" opacity="1.000000" stroke="none" 
	d="
M491.235626,772.557739 
	C491.415833,772.029541 491.469513,771.870850 491.545074,771.723328 
	C492.707916,769.453003 494.010468,767.281616 496.964325,767.284119 
	C498.030579,767.284973 498.823120,768.068665 498.992554,769.162415 
	C499.470001,772.244507 496.921600,773.351440 495.012451,774.868103 
	C496.211426,776.132568 497.587372,773.880493 498.874542,775.457458 
	C498.091705,777.863770 496.221954,778.577637 493.933350,777.994080 
	C491.403961,777.349182 490.702850,775.376160 491.235626,772.557739 
z"/>
<path fill="#000000" opacity="1.000000" stroke="none" 
	d="
M501.813049,772.899536 
	C503.210907,763.507019 503.959717,762.848389 510.852692,764.755127 
	C510.322784,766.714722 508.444061,766.012268 507.294586,766.599304 
	C506.007080,767.256714 505.098877,768.079590 505.633606,769.708984 
	C506.884949,771.214722 509.326477,768.702881 510.541931,771.407349 
	C507.961578,773.230347 503.947113,773.381470 503.347473,777.462158 
	C501.212921,776.325745 501.982208,774.675293 501.813049,772.899536 
z"/>
<path fill="#000000" opacity="1.000000" stroke="none" 
	d="
M638.699585,775.505005 
	C639.978027,775.473572 640.731018,775.858826 639.938965,776.878113 
	C639.082153,777.980713 637.757751,778.369568 636.358643,778.026367 
	C634.752197,777.632202 633.815735,776.570679 633.584106,774.915100 
	C633.264771,772.632446 633.920715,770.675720 635.526184,769.023071 
	C636.996826,767.509216 638.709412,766.133118 640.644653,767.886780 
	C642.717407,769.765198 641.134216,771.398254 639.729248,772.924011 
	C638.958313,773.761108 637.480408,773.716919 637.171326,775.056580 
	C637.148315,775.156250 637.336121,775.389404 637.461487,775.421509 
	C637.775391,775.501709 638.109741,775.502136 638.699585,775.505005 
z"/>
<path fill="#000000" opacity="1.000000" stroke="none" 
	d="
M709.807007,771.309570 
	C709.233887,772.434021 709.519653,773.742554 708.150940,773.905029 
	C706.719788,769.560608 708.153687,765.926270 711.758484,764.836182 
	C713.921326,764.182129 716.131104,763.834656 717.575439,766.124084 
	C718.865784,768.169373 717.587708,769.662292 716.018250,770.754150 
	C714.695435,771.674316 715.045593,773.049744 714.700623,774.281006 
	C713.210388,774.114380 712.227783,773.413818 711.704407,772.041931 
	C712.372742,770.082703 715.334534,770.058838 715.394775,767.639343 
	C711.614319,765.235229 711.014221,765.599243 709.807007,771.309570 
z"/>
<path fill="#000000" opacity="1.000000" stroke="none" 
	d="
M647.934204,772.397339 
	C649.431396,770.434143 650.124084,767.987793 653.434570,767.702087 
	C652.510071,772.140137 648.950195,774.319031 647.269714,778.329041 
	C643.888489,775.062012 642.510681,772.122742 643.678162,768.243286 
	C647.011475,768.508850 644.787720,772.580444 647.934204,772.397339 
z"/>
<path fill="#000000" opacity="1.000000" stroke="none" 
	d="
M670.807129,772.836914 
	C670.593140,766.562134 675.960693,769.064026 677.556213,769.290894 
	C680.911377,769.767883 680.268433,773.274597 679.948120,776.120483 
	C677.322754,775.638489 678.290527,773.126343 676.818726,772.128296 
	C674.163147,771.946777 674.310303,775.413147 672.115295,775.937927 
	C670.444153,775.628540 671.012329,774.218933 670.807129,772.836914 
z"/>
<path fill="#000000" opacity="1.000000" stroke="none" 
	d="
M548.186035,769.890930 
	C548.987061,772.210876 549.552551,774.241272 550.189514,776.528320 
	C546.747070,776.506042 547.591675,773.324463 546.074036,771.969849 
	C543.539612,772.051392 543.649597,775.955566 540.578064,775.772400 
	C539.295593,773.676147 539.925598,771.539673 540.787354,768.926025 
	C543.132446,771.391235 545.623474,767.588806 548.186035,769.890930 
z"/>
<path fill="#000000" opacity="1.000000" stroke="none" 
	d="
M728.576843,767.879395 
	C727.657715,769.725159 727.937256,771.780945 725.787292,773.088135 
	C724.824402,770.311157 725.071960,766.735474 721.021790,765.984253 
	C724.616150,764.561646 728.006958,764.178345 731.582397,764.484985 
	C731.706970,766.808472 729.341858,766.326843 728.576843,767.879395 
z"/>
<path fill="#000000" opacity="1.000000" stroke="none" 
	d="
M532.421936,769.634399 
	C531.687439,772.446716 533.111023,775.293152 530.933350,777.532837 
	C528.285156,773.903259 529.148376,766.372192 532.726746,762.201416 
	C534.456116,764.722778 532.811157,766.971436 532.421936,769.634399 
z"/>
<path fill="#000000" opacity="1.000000" stroke="none" 
	d="
M525.908936,763.421753 
	C527.383362,762.338379 527.930237,762.949219 528.064880,764.182617 
	C528.117676,764.666809 528.064697,765.193237 527.929077,765.662598 
	C526.797546,769.579895 526.440674,773.631653 525.740601,777.703918 
	C522.487244,773.023743 524.375122,768.370544 525.908936,763.421753 
z"/>
<path fill="#000000" opacity="1.000000" stroke="none" 
	d="
M553.411987,782.629150 
	C560.078979,780.358337 557.444702,773.095703 560.426025,768.638245 
	C563.062439,776.407349 559.692627,783.190918 553.411987,782.629150 
z"/>
<path fill="#000000" opacity="1.000000" stroke="none" 
	d="
M687.451599,766.022949 
	C688.447632,767.028992 689.205994,767.875916 690.259216,769.052063 
	C686.099854,770.642334 685.668701,773.853638 687.090393,778.002502 
	C682.197083,774.570801 682.561035,769.170898 687.451599,766.022949 
z"/>
<path fill="#000000" opacity="1.000000" stroke="none" 
	d="
M453.621246,777.844971 
	C448.006256,774.876160 452.753876,771.558411 452.109833,767.290710 
	C455.490997,770.263367 451.389038,776.980591 458.762390,775.141052 
	C457.280426,777.227966 455.414398,777.056274 453.621246,777.844971 
z"/>
<path fill="#000000" opacity="1.000000" stroke="none" 
	d="
M488.924744,773.279724 
	C488.686279,774.559937 488.802338,775.712769 486.661407,775.796570 
	C486.545044,772.036804 486.146027,768.374512 488.939484,764.311829 
	C490.244965,767.683533 488.711761,770.317993 488.924744,773.279724 
z"/>
<path fill="#000000" opacity="1.000000" stroke="none" 
	d="
M534.636963,773.208862 
	C534.998108,771.208374 534.368164,769.132446 537.042847,768.254761 
	C538.660034,771.482971 537.142090,774.264404 536.390320,777.246338 
	C533.938660,776.570374 534.643982,774.920898 534.636963,773.208862 
z"/>
<path fill="#000000" opacity="1.000000" stroke="none" 
	d="
M656.880615,772.598450 
	C656.205383,774.198547 656.869446,775.978455 654.916992,776.936646 
	C653.113342,773.946777 654.711121,771.396729 655.489868,768.560730 
	C657.892639,769.302551 656.863708,770.970459 656.880615,772.598450 
z"/>
<path fill="#000000" opacity="1.000000" stroke="none" 
	d="
M470.627197,768.530151 
	C472.495728,767.661072 473.556763,767.961792 472.761597,769.958801 
	C472.111053,771.592651 471.086365,773.077576 469.868164,775.277527 
	C468.870056,772.521240 469.932281,770.660461 470.627197,768.530151 
z"/>
<path fill="#000000" opacity="1.000000" stroke="none" 
	d="
M422.683716,340.721710 
	C416.513367,342.941254 414.278259,347.272919 414.289185,353.241699 
	C414.339874,380.887512 414.359283,408.533600 414.260223,436.179169 
	C414.246979,439.871460 415.497772,442.596863 418.363617,444.759155 
	C419.508545,445.622986 420.931854,446.368408 420.677917,449.142395 
	C410.923523,449.321045 401.185394,449.611511 391.199890,449.000671 
	C391.405426,447.744934 391.319275,447.019379 391.580475,446.858856 
	C397.756439,443.062866 398.157928,437.202576 397.898956,430.759247 
	C397.551422,422.112305 397.716217,413.442017 397.778290,404.782623 
	C397.805145,401.039581 396.237366,399.276276 392.413727,399.294708 
	C381.089355,399.349243 369.764099,399.332062 358.439880,399.249146 
	C354.859619,399.222931 353.290863,400.793549 353.313660,404.364014 
	C353.383942,415.355316 353.382721,426.347351 353.339874,437.338837 
	C353.329163,440.085968 354.627838,442.062653 356.483826,443.863770 
	C357.760284,445.102448 359.563629,445.942505 359.956696,448.981934 
	C349.995911,449.548401 340.190399,449.555267 330.390747,448.970459 
	C330.390747,447.824554 330.324829,447.563202 330.400085,447.512848 
	C338.073944,442.377502 336.869904,434.522186 336.843903,426.940002 
	C336.759491,402.292297 336.792114,377.644196 336.762726,352.996246 
	C336.753510,345.288116 333.682739,341.645142 326.201538,340.558624 
	C325.013977,340.386139 323.699188,340.608276 323.585297,339.015503 
	C323.486755,337.637817 324.422119,336.791412 325.756989,336.805664 
	C338.196503,336.938538 350.655212,335.851196 363.071533,337.375916 
	C363.158875,337.386627 363.214874,337.652985 363.352905,337.940247 
	C363.272644,340.355042 361.038666,340.380249 359.478607,340.909271 
	C355.258362,342.340302 353.367310,345.286499 353.352753,349.585510 
	C353.320007,359.244751 353.373077,368.904663 353.279633,378.563202 
	C353.250885,381.531097 354.486450,382.807159 357.428467,382.797974 
	C369.418884,382.760559 381.409576,382.767822 393.400024,382.808868 
	C396.572113,382.819733 397.924805,381.257416 397.903748,378.202911 
	C397.838379,368.711365 397.811279,359.219604 397.740631,349.728119 
	C397.708832,345.456573 394.974213,343.196198 391.507477,341.481079 
	C389.842438,340.657349 387.405487,340.835419 386.914185,337.429688 
	C400.074585,337.429688 413.086426,337.429688 426.148163,337.429688 
	C426.520020,340.127350 424.453247,340.022461 422.683716,340.721710 
z"/>
<path fill="#000000" opacity="1.000000" stroke="none" 
	d="
M273.698242,723.699097 
	C273.653381,722.505005 273.615875,721.678955 273.579315,720.874268 
	C272.206848,720.307617 272.243530,721.523682 271.853333,722.069885 
	C270.025635,724.628296 269.702515,729.369385 265.406647,728.601074 
	C260.585480,727.738892 255.510437,726.256958 254.122192,720.249084 
	C253.688934,718.374084 253.006332,716.556702 252.239929,714.070923 
	C251.253036,715.950012 250.570206,717.234436 249.901794,718.526184 
	C248.649338,720.946594 246.785950,721.318726 244.491623,720.110779 
	C242.183044,718.895264 242.896912,717.153076 243.749557,715.424927 
	C245.369232,712.141968 246.980789,708.854614 248.641708,705.592529 
	C249.953033,703.017090 251.978195,700.849548 249.745834,697.452942 
	C248.506363,695.567017 250.710083,694.464172 252.568024,694.855469 
	C257.154602,695.821716 261.647247,697.312256 265.382019,700.186584 
	C269.478699,703.339294 268.566833,708.795410 263.728058,711.750610 
	C258.422638,714.990723 258.440704,717.891113 263.792816,722.137207 
	C268.783356,718.341064 271.265167,711.676208 269.689575,706.217407 
	C269.145691,704.333191 269.883331,703.353088 271.741943,703.074524 
	C275.624084,702.492554 278.997833,704.805420 279.553284,708.787964 
	C280.098450,712.696411 280.271393,716.656799 280.723083,721.945496 
	C283.899231,718.643066 286.436462,716.150330 288.802795,713.504761 
	C291.313660,710.697632 293.405762,709.567932 297.755524,711.125305 
	C307.694733,714.683777 318.287811,716.095947 328.717102,717.725525 
	C332.814636,718.365906 335.489685,719.532349 337.055969,723.465698 
	C338.393677,726.825012 340.267731,729.970703 342.318176,734.029663 
	C343.161713,729.973267 343.697357,726.783630 344.510132,723.666260 
	C345.282166,720.705444 347.592712,719.160461 350.131317,720.904724 
	C352.576843,722.584961 354.298309,721.706177 356.528473,721.071167 
	C362.835236,719.275574 367.506104,722.235657 366.519775,727.204834 
	C366.298920,728.317810 366.279968,729.621643 364.861084,730.017761 
	C363.279175,730.459412 362.296448,729.704041 361.775574,728.270020 
	C361.206604,726.703430 360.344025,725.601379 358.471649,726.033203 
	C357.629028,726.227539 356.852386,726.691650 356.720612,727.607666 
	C356.460083,729.418518 357.832855,730.253052 359.066101,731.093750 
	C359.888611,731.654541 360.803101,732.078308 361.654968,732.598572 
	C364.845795,734.546875 367.105316,737.057251 366.435059,741.136902 
	C365.860870,744.631714 363.660004,746.818420 360.351196,747.701172 
	C356.401703,748.754944 352.255646,749.183289 348.993530,746.182678 
	C346.623901,744.003052 347.551453,740.894897 349.252075,738.901855 
	C350.997253,736.856567 352.578461,738.551636 353.152832,740.538269 
	C353.765991,742.658875 355.009674,743.669739 357.128143,743.425354 
	C358.310486,743.288940 359.456635,742.692749 359.581940,741.314331 
	C359.770447,739.241028 358.055328,738.487671 356.652130,737.667297 
	C353.298615,735.706726 349.982605,733.765442 349.492462,729.087341 
	C348.201965,733.754150 347.475586,738.246155 347.118378,742.811157 
	C346.986786,744.492432 346.676270,746.261719 344.756531,746.839905 
	C342.487823,747.523132 341.403198,745.846497 340.477325,744.245361 
	C338.011627,739.981262 335.625885,735.670959 332.819244,730.688232 
	C331.828369,734.647705 331.093811,737.835999 330.222809,740.986633 
	C329.469696,743.710938 327.993988,745.285339 324.763000,744.559143 
	C319.306061,743.332581 313.812500,742.246216 308.301025,741.293884 
	C305.294647,740.774353 304.355804,739.474121 305.261475,736.475220 
	C306.654236,731.863342 307.755707,727.163940 309.009277,722.509399 
	C309.487640,720.733154 309.688110,719.160217 306.623505,718.852356 
	C305.167328,723.826599 303.575958,728.850098 302.244141,733.941467 
	C301.157196,738.096680 299.305969,740.301514 294.854523,737.827393 
	C294.564240,737.666016 294.269440,737.477295 293.952972,737.403992 
	C290.837372,736.681519 286.927368,737.688599 285.174133,733.900635 
	C283.712433,730.742554 286.109192,727.809631 286.269409,723.038269 
	C283.673676,725.913208 281.921143,727.956421 280.051605,729.886414 
	C278.936951,731.037109 277.931885,732.796143 275.958191,732.158325 
	C273.783997,731.455750 273.892334,729.382263 273.780121,727.563843 
	C273.708374,726.401184 273.727295,725.232910 273.698242,723.699097 
M322.387329,735.089966 
	C326.569489,734.887756 328.856720,729.599548 327.330353,723.534058 
	C325.305298,724.210144 323.442841,728.610046 321.176849,724.098145 
	C320.358643,722.468994 319.748138,720.850830 317.709290,721.509827 
	C315.619934,722.185120 315.369049,724.010010 315.923370,726.176880 
	C316.679443,726.372620 317.455322,726.583069 318.235992,726.773865 
	C320.201355,727.254272 323.228241,726.844727 322.591736,730.099915 
	C322.032928,732.957642 319.238831,732.607849 317.229889,732.070618 
	C313.394897,731.044922 313.024597,733.228577 312.892761,736.045532 
	C316.123810,738.551147 319.009674,738.089294 322.387329,735.089966 
M297.741150,725.314575 
	C298.325073,723.238831 298.954956,721.174500 299.473206,719.082458 
	C299.725189,718.065186 299.576294,717.044739 298.394196,716.632751 
	C297.506073,716.323181 296.718536,716.627502 296.316406,717.483643 
	C294.479431,721.394470 292.835266,725.388977 292.313873,729.714417 
	C292.125641,731.275879 293.116669,732.140930 294.842896,732.214600 
	C296.814941,730.686646 296.709534,728.152710 297.741150,725.314575 
M257.345947,703.258057 
	C257.037323,704.617065 255.419846,705.668823 256.365997,707.389526 
	C258.735382,708.133484 260.479370,707.470215 260.651825,704.904114 
	C260.769775,703.148865 260.099426,701.413269 257.345947,703.258057 
z"/>
<path fill="#000000" opacity="1.000000" stroke="none" 
	d="
M237.173096,713.612854 
	C226.836090,714.970215 220.540451,709.014893 220.747116,697.960022 
	C212.532547,702.451111 205.595428,700.098694 198.869064,694.717041 
	C195.645706,692.138062 195.671417,690.337036 198.189789,687.494080 
	C200.609222,684.762817 202.689285,681.723938 204.834579,678.759521 
	C206.146118,676.947266 207.421356,675.502197 206.427551,672.561218 
	C205.211700,668.963074 208.454605,669.295349 210.395309,670.321472 
	C218.113403,674.402588 226.941422,677.623291 226.583023,689.221863 
	C230.549835,687.499634 234.021179,685.731018 237.986343,686.734253 
	C242.581726,687.897156 246.540756,690.095703 247.862976,694.915588 
	C249.438828,700.659912 247.758316,705.780640 243.503448,709.954956 
	C241.831024,711.595642 239.867920,712.867554 237.173096,713.612854 
M239.119583,704.537659 
	C242.611816,697.752747 242.346802,693.804626 238.278366,692.005371 
	C235.113297,690.605713 231.191605,693.464600 228.773514,698.793640 
	C227.253693,702.143066 226.903107,705.390137 230.273727,707.662842 
	C233.841507,710.068481 236.510666,708.079895 239.119583,704.537659 
M208.655655,685.126160 
	C207.313828,687.345947 205.153687,689.064392 204.433411,691.883728 
	C207.001587,694.985352 210.351974,695.830017 213.710709,694.129517 
	C217.433731,692.244507 219.634476,688.770020 219.492981,684.451965 
	C219.406281,681.805969 217.595490,679.778870 215.156982,678.871460 
	C212.796509,677.993103 212.320129,680.576172 211.149963,681.771667 
	C210.349960,682.589050 209.771057,683.622864 208.655655,685.126160 
z"/>
<path fill="#000000" opacity="1.000000" stroke="none" 
	d="
M636.520020,556.471924 
	C633.846252,553.815674 631.818848,550.606201 627.650818,552.073853 
	C626.052368,545.938904 629.016541,542.526550 634.606018,543.657654 
	C637.831604,544.310425 641.053711,544.980652 645.316162,545.856506 
	C642.893005,543.092285 641.127258,541.182068 639.480896,539.174011 
	C637.335815,536.557617 636.778564,534.104919 639.588928,531.290222 
	C641.297424,529.579102 642.236023,527.101379 643.529602,524.973511 
	C645.917358,521.045654 648.811157,517.692139 653.457092,516.413757 
	C653.938477,514.840149 652.390015,513.540833 653.122559,512.026611 
	C654.110779,509.983887 654.216858,507.182098 656.855347,506.482635 
	C659.396790,505.808868 660.641541,508.069275 662.100952,509.612518 
	C665.202454,512.892151 667.155945,517.428772 672.220825,519.094788 
	C674.045837,514.038025 671.607483,510.453491 669.011597,507.037720 
	C667.305054,504.792236 665.199341,502.853760 663.330627,500.726654 
	C662.056274,499.276154 661.293274,497.632721 662.294739,495.703949 
	C663.397400,493.580444 665.155640,493.852631 667.396729,495.086304 
	C666.347168,490.512787 666.286377,486.583160 668.575745,482.996948 
	C670.965393,479.253479 674.096436,479.155640 676.351990,482.897705 
	C677.728943,485.182220 678.243042,487.624573 674.218079,487.272095 
	C672.041016,487.081390 671.347595,488.117767 671.589844,489.789459 
	C671.865662,491.692596 673.434570,491.908783 675.078735,491.512634 
	C675.398987,491.435486 675.704895,491.286804 676.007019,491.148315 
	C679.377441,489.603485 682.715149,487.778839 685.990540,491.415497 
	C688.870972,494.613647 690.196106,500.958435 687.386047,504.905579 
	C684.791260,508.550323 684.408752,513.923401 679.401428,515.812439 
	C678.542236,516.136536 678.538513,517.116394 678.361145,517.939575 
	C676.340149,527.316406 674.418457,528.312744 665.297729,524.338196 
	C668.197815,531.246643 668.694458,537.734558 663.939148,543.819885 
	C660.273865,548.510193 658.970764,548.711182 655.168213,544.214844 
	C652.253296,540.768127 648.863098,537.899353 645.034424,535.303650 
	C645.643982,538.337402 647.887878,540.361755 649.820007,542.525696 
	C651.481445,544.386475 653.389587,546.024902 655.096802,547.847656 
	C656.303162,549.135620 658.116028,550.362061 656.916321,552.517456 
	C655.708740,554.686951 653.564026,554.393860 651.571655,554.089172 
	C648.211365,553.575378 644.867615,552.953247 641.175293,552.317871 
	C641.876160,555.004761 643.501831,556.256836 644.720093,557.770813 
	C646.759766,560.305481 649.673706,562.378906 646.700562,566.319580 
	C643.795044,570.170471 640.981384,572.910095 635.988525,569.680298 
	C634.782715,568.900269 633.376221,567.923035 631.946960,569.430664 
	C630.870605,570.565979 629.724915,572.054871 630.916992,573.396545 
	C637.786865,581.128723 631.354431,585.477600 626.666382,590.055176 
	C621.001099,595.586914 614.942871,600.715576 609.260498,606.230652 
	C606.940247,608.482605 605.495056,608.144348 603.612183,605.852783 
	C600.864502,602.508606 597.923828,599.319519 594.992126,596.131775 
	C593.890564,594.933899 592.884644,593.467590 591.001709,593.373352 
	C589.445190,593.295349 587.337952,594.204285 586.942871,591.767578 
	C586.541077,589.289490 588.389099,587.795349 590.160522,586.532227 
	C591.901917,585.290527 593.670837,585.670288 595.132996,587.137390 
	C597.601624,589.614258 599.947266,592.215881 602.458313,594.647583 
	C604.225464,596.358826 605.380005,599.921570 608.725647,598.096558 
	C612.086731,596.263000 611.331482,592.009216 610.880127,589.597107 
	C610.298706,586.489685 607.221924,583.704651 603.803894,582.447449 
	C602.255493,581.877991 599.821777,583.010498 599.778748,580.094238 
	C599.746704,577.913208 601.026001,576.282349 602.748474,575.167114 
	C604.743164,573.875610 606.634766,574.628235 608.167358,576.148193 
	C610.057617,578.022949 611.815674,580.030579 613.638916,581.973267 
	C614.892456,583.309021 616.106323,584.688782 617.438904,585.941406 
	C618.384094,586.830017 619.397827,587.908264 620.929626,587.027710 
	C622.295288,586.242615 623.438904,585.336426 622.868835,583.460205 
	C622.526733,582.333923 622.099915,580.697998 623.209656,580.227417 
	C627.986389,578.201782 625.473694,575.377625 624.365845,572.567505 
	C622.778320,568.540588 621.263428,564.482178 619.837769,560.395325 
	C619.183960,558.521118 618.555969,556.566528 620.523865,554.895569 
	C622.643250,553.095947 624.254333,554.547241 625.883911,555.619995 
	C630.525330,558.675232 635.134583,561.774902 640.993652,564.100342 
	C640.450256,560.454407 638.166443,558.846069 636.520020,556.471924 
M650.182373,529.633301 
	C653.314087,532.968628 656.445801,536.303894 659.676453,539.744568 
	C664.019348,533.671509 660.311035,524.641663 653.933716,523.602234 
	C650.766907,523.086060 648.954346,525.506104 650.182373,529.633301 
M681.533569,502.343079 
	C684.539551,501.743378 684.047241,499.525848 683.227173,497.784424 
	C682.351868,495.925751 680.607483,496.833740 679.401978,497.630493 
	C676.444641,499.585144 673.374817,500.013367 669.480042,498.247162 
	C672.094360,500.935455 674.141479,503.040466 676.604370,505.572998 
	C677.306702,503.210083 678.030762,500.978546 681.533569,502.343079 
z"/>
<path fill="#000000" opacity="1.000000" stroke="none" 
	d="
M588.611328,608.380371 
	C585.344299,605.423889 583.331055,601.511292 578.655457,600.807495 
	C577.119202,600.576294 576.325745,598.722473 577.304504,597.179382 
	C578.557495,595.203918 580.165649,593.256348 582.912109,593.976013 
	C584.124023,594.293579 585.362671,595.118164 586.226929,596.048950 
	C590.178772,600.304871 593.996460,604.685181 597.874512,609.009949 
	C599.476379,610.796265 600.416504,612.626648 598.204346,614.593079 
	C596.023621,616.531616 594.635193,614.961731 593.242249,613.402527 
	C591.803650,611.792175 590.322937,610.219360 588.611328,608.380371 
z"/>
<path fill="#000000" opacity="1.000000" stroke="none" 
	d="
M362.510864,56.531490 
	C363.586334,58.752003 363.195740,61.264244 365.821960,62.849300 
	C368.563110,56.153549 370.286804,49.321877 371.556183,42.365505 
	C371.927673,40.329338 370.340942,39.081806 369.223785,37.626457 
	C366.979095,34.702286 367.667969,32.267124 371.138000,31.913151 
	C375.418823,31.476465 379.799652,31.477905 384.088562,31.850792 
	C387.015076,32.105232 388.096680,34.405453 386.513275,36.973808 
	C379.034851,49.104515 377.465179,63.305710 372.520538,76.315521 
	C371.156281,79.905075 371.246002,83.017433 374.562439,85.634514 
	C375.963104,86.739792 377.390381,88.263359 376.343353,90.350647 
	C375.372162,92.286697 373.408783,92.332359 371.557526,92.332970 
	C358.673950,92.337257 345.821075,92.939316 332.994751,94.166245 
	C331.162933,94.341461 329.166077,94.319962 328.139038,92.400101 
	C327.103363,90.464081 327.989227,88.814606 329.542206,87.581604 
	C331.504974,86.023224 331.266968,84.179726 330.489105,82.198204 
	C326.539307,72.136398 322.545410,62.091579 318.661591,52.004391 
	C317.646240,49.367390 315.317749,48.440029 313.207336,47.169144 
	C311.540161,46.165161 310.185059,44.952076 310.647552,42.786964 
	C311.073975,40.790890 312.873138,40.272892 314.477600,40.125065 
	C320.761414,39.546112 327.058929,38.930008 333.360779,38.805973 
	C336.930817,38.735710 338.535767,41.747456 336.130920,44.047047 
	C332.321167,47.690075 333.571533,51.034252 335.268188,54.809956 
	C336.687897,57.969318 337.915161,61.215153 339.538757,65.183022 
	C342.959503,57.932789 343.604462,50.761040 345.693451,44.026333 
	C346.617310,41.047768 346.893311,37.843269 351.319427,37.606251 
	C355.746124,37.369198 357.043243,40.022636 358.120880,43.394028 
	C359.487762,47.670296 360.961578,51.912369 362.510864,56.531490 
M347.465515,83.879440 
	C349.109650,85.310303 350.153900,88.020027 353.086731,86.803352 
	C354.626709,86.164505 356.386292,85.064400 356.069946,83.259834 
	C355.160431,78.071846 353.303040,73.179169 350.505219,68.579765 
	C349.144623,73.609001 346.113770,78.022392 347.465515,83.879440 
z"/>
<path fill="#000000" opacity="1.000000" stroke="none" 
	d="
M189.023636,118.985809 
	C189.236221,121.799515 187.661789,123.237862 185.202957,124.083138 
	C180.326477,125.759537 175.483398,127.534271 170.593643,129.170105 
	C169.071259,129.679413 167.415710,130.477722 165.922287,128.972244 
	C164.462311,127.500458 164.880814,125.876846 165.730377,124.380585 
	C166.869019,122.375175 166.197601,120.525330 165.554916,118.632591 
	C162.773422,110.440872 160.025085,102.237579 157.185501,94.066017 
	C155.734985,89.891838 154.821014,85.573433 149.661774,83.670723 
	C147.057510,82.710289 147.102417,79.495911 149.981049,78.296799 
	C155.958481,75.806847 162.132034,73.779198 168.263748,71.674423 
	C169.732483,71.170250 171.229691,71.439285 172.270752,72.887344 
	C173.295944,74.313293 173.206406,75.749802 172.188812,77.039909 
	C168.153488,82.155960 171.722427,86.757477 173.751755,90.910759 
	C175.359467,94.201088 178.760910,91.216263 181.313278,90.747803 
	C183.221466,90.397575 184.995499,89.335739 184.147720,86.968750 
	C182.489197,82.338120 182.897903,76.669899 176.854904,74.251106 
	C173.946503,73.086967 174.254837,69.848503 177.349060,68.730225 
	C183.441132,66.528511 189.697800,64.775871 195.912369,62.924702 
	C197.241119,62.528896 198.554688,62.814892 199.422302,64.140327 
	C200.389297,65.617561 200.176514,67.189278 199.153671,68.324013 
	C196.350876,71.433426 197.174835,74.607536 198.272919,78.087143 
	C200.874207,86.330185 203.296387,94.632294 205.634445,102.954506 
	C206.480560,105.966187 207.750870,108.371796 210.569717,110.061707 
	C213.405655,111.761841 213.651291,114.309174 210.543823,115.801628 
	C204.986740,118.470566 198.861343,119.554016 192.932556,121.152412 
	C191.521103,121.532936 190.392517,120.622353 189.347382,118.950172 
	C193.843185,111.908661 190.250595,106.120293 187.866333,99.799995 
	C186.104385,100.235107 184.535309,100.673477 182.944061,101.005692 
	C178.690704,101.893723 178.051926,104.067490 179.274628,108.204567 
	C180.866241,113.590012 183.560074,117.385071 189.023636,118.985809 
z"/>
<path fill="#000000" opacity="1.000000" stroke="none" 
	d="
M296.502502,81.358429 
	C296.195831,79.287025 295.813324,77.647949 295.729706,75.993767 
	C295.513336,71.712486 293.618896,68.716553 289.466736,67.333649 
	C288.177887,66.904381 286.719635,66.560371 286.809113,64.854675 
	C286.919647,62.747337 288.752045,62.959801 290.172455,62.690945 
	C296.733185,61.449150 303.358948,60.824642 310.026764,60.601082 
	C311.522400,60.550934 313.180634,60.284420 313.942230,62.008881 
	C314.593750,63.484028 314.369324,65.079666 313.239929,66.217865 
	C307.273712,72.230690 311.178253,79.077400 311.585815,85.598465 
	C311.674469,87.016983 313.390076,87.384033 314.474884,88.130768 
	C316.043182,89.210312 317.220703,90.626305 316.738953,92.738342 
	C316.295105,94.684204 314.773315,95.096466 313.027435,95.486122 
	C303.745972,97.557579 294.275482,98.416412 284.858337,99.072754 
	C272.227631,99.953056 259.492126,86.493683 258.693481,72.385567 
	C257.642059,53.812683 268.827087,42.435501 289.557800,41.068161 
	C294.340027,40.752739 299.117737,41.308533 303.858307,39.535778 
	C306.551727,38.528557 308.490265,40.591354 307.684296,43.535889 
	C306.367950,48.345211 304.821655,53.118801 302.962311,57.742599 
	C301.752930,60.750172 299.200134,60.700623 297.293610,57.983070 
	C292.865051,51.670609 288.743134,49.849461 282.807526,51.582882 
	C277.868134,53.025372 274.236816,58.772541 274.094696,65.449448 
	C273.957733,71.882751 274.712738,78.097832 278.734100,83.465736 
	C282.283569,88.203712 288.430084,90.147362 293.915253,88.413651 
	C297.610321,87.245735 296.516174,84.323509 296.502502,81.358429 
z"/>
<path fill="#000000" opacity="1.000000" stroke="none" 
	d="
M436.687744,75.807526 
	C436.511261,81.379288 438.112274,85.836266 442.590332,89.023743 
	C444.334137,90.264954 446.369049,91.763229 445.054840,94.328804 
	C443.912476,96.558899 441.758636,95.887878 439.735596,95.654060 
	C434.118896,95.004906 428.477722,94.570244 422.855835,93.961906 
	C421.249420,93.788071 419.376465,93.763123 418.795349,91.721771 
	C418.248962,89.802422 419.288849,88.399765 420.800232,87.561050 
	C424.444122,85.538872 422.689270,82.784889 421.975677,80.170303 
	C421.239807,77.474129 420.209351,75.126732 416.700104,75.284660 
	C414.546112,75.381607 412.373535,75.203682 410.216217,75.051338 
	C407.775909,74.878998 406.087402,75.742233 405.062073,78.064888 
	C404.049805,80.357956 403.697998,82.518211 405.389313,84.620186 
	C406.222443,85.655548 407.216736,86.584641 407.913422,87.701904 
	C409.901123,90.889618 409.022247,93.072258 405.338928,93.077698 
	C398.872223,93.087257 392.402679,92.594215 385.939209,92.225960 
	C384.570465,92.147987 383.344330,91.503883 382.945496,89.997215 
	C382.418793,88.007698 383.577209,86.837219 385.108582,85.965096 
	C389.413422,83.513481 393.042877,80.475029 394.694977,75.071732 
	C390.641388,73.575981 391.499603,70.610069 392.788574,67.545708 
	C393.369202,66.165398 393.972809,64.793327 394.505554,63.394516 
	C396.533600,58.069767 397.008301,57.874325 401.858337,60.688450 
	C403.544708,56.897736 405.140442,53.086426 406.930786,49.368816 
	C408.038696,47.068226 407.319489,45.344307 406.024292,43.393990 
	C403.882294,40.168507 405.472870,37.965290 408.807983,37.964565 
	C414.941956,37.963226 421.101013,38.438110 427.198944,39.149048 
	C429.955750,39.470451 432.476135,41.972355 430.031982,44.347729 
	C425.813202,48.447845 427.803284,52.140209 429.279907,56.155792 
	C429.906921,57.860886 430.334137,59.673885 431.754364,61.104195 
	C433.538818,61.728043 436.474060,59.066494 437.310333,62.161366 
	C438.491425,66.532372 440.024689,71.154808 436.687744,75.807526 
z"/>
<path fill="#000000" opacity="1.000000" stroke="none" 
	d="
M490.214783,90.817490 
	C492.616486,94.847687 494.758362,98.609894 497.156128,102.201279 
	C498.379333,104.033470 499.276215,105.724533 497.596832,107.572861 
	C495.686005,109.675919 493.586853,108.778625 491.811371,107.369621 
	C484.041443,101.203545 478.746033,93.281425 475.546173,83.930229 
	C475.115723,82.672379 474.841217,81.362045 474.449036,80.090034 
	C473.900085,78.309639 472.830505,77.311707 470.798767,77.403084 
	C468.924683,77.487373 467.539581,78.062721 467.084167,80.019814 
	C466.047302,84.475891 465.335785,88.920654 468.613098,92.843185 
	C469.810669,94.276497 471.281891,95.654984 470.044617,97.651344 
	C468.699768,99.821213 466.668976,98.991730 464.662964,98.690872 
	C460.397888,98.051208 456.076019,97.788200 451.812744,97.139008 
	C449.946869,96.854874 447.570770,96.896675 446.899689,94.461288 
	C446.238312,92.060966 447.884369,90.778358 449.703918,89.746811 
	C453.761658,87.446350 453.494751,83.464409 453.628204,79.658859 
	C453.667450,78.540268 452.988068,77.689240 451.892944,77.537392 
	C449.801666,77.247406 447.668396,76.927750 447.869232,74.195496 
	C448.057068,71.640282 449.168762,69.336769 451.424957,67.925842 
	C456.517120,64.741394 457.997437,57.186321 454.420074,52.089340 
	C452.687805,49.621330 452.998230,47.627354 455.969971,46.648144 
	C469.333527,42.244732 482.403717,42.800949 494.176178,50.869789 
	C503.666962,57.374752 501.879028,69.672386 491.280579,74.457298 
	C484.718201,77.420044 484.686066,77.432335 487.237671,84.099602 
	C488.067688,86.268501 489.113678,88.354744 490.214783,90.817490 
M472.804688,67.728287 
	C476.149139,67.816307 479.452148,67.655350 482.334595,65.669762 
	C484.200287,64.384575 485.667786,62.700302 485.074860,60.289719 
	C484.184326,56.669239 481.304901,55.075409 478.009796,54.026932 
	C475.922821,53.362877 473.771515,52.664047 471.930115,54.352348 
	C469.689026,56.407089 469.822235,64.851105 472.804688,67.728287 
z"/>
<path fill="#000000" opacity="1.000000" stroke="none" 
	d="
M555.573853,78.983147 
	C559.131592,69.196243 567.704529,65.313843 578.505737,68.270966 
	C582.717407,69.424019 586.569397,71.399139 590.285461,73.647514 
	C592.847778,75.197853 595.324463,76.656822 598.528809,76.869377 
	C601.849670,77.089653 602.843933,79.158356 600.888916,82.075417 
	C598.457214,85.703789 595.399719,88.828300 591.929565,91.403603 
	C588.782654,93.738960 586.051453,92.484131 585.694702,88.564919 
	C585.221802,83.369980 582.840759,79.751076 578.019653,77.903763 
	C575.037292,76.761002 571.836975,76.725258 569.981567,79.720413 
	C568.157043,82.665627 570.975769,84.300079 572.832886,85.766602 
	C575.433411,87.820122 578.336426,89.486145 581.058960,91.390869 
	C583.371887,93.008987 585.794617,94.534058 587.851746,96.442108 
	C594.589478,102.691444 595.709290,108.185471 592.014832,115.498535 
	C588.296814,122.858238 581.069092,126.402435 572.947632,125.031105 
	C567.456299,124.103882 562.293640,122.320145 557.590027,119.384933 
	C553.901184,117.083015 550.379761,114.635056 545.674988,115.128952 
	C544.013916,115.303337 542.916382,114.080719 542.304321,112.602249 
	C541.614258,110.935112 542.544250,109.741478 543.646301,108.638596 
	C546.350403,105.932503 549.067078,103.238708 551.747864,100.509720 
	C553.039978,99.194420 554.278992,97.566849 556.351807,98.080757 
	C558.634949,98.646797 559.026550,100.717529 559.476624,102.741287 
	C561.338440,111.113892 564.640320,114.504944 571.888306,115.556236 
	C574.838318,115.984131 577.762451,115.808311 579.165894,112.658241 
	C580.450806,109.774033 578.818481,107.445221 576.830383,105.572136 
	C573.772095,102.690681 570.029419,100.846252 566.255981,99.048470 
	C557.709473,94.976646 553.675354,87.503227 555.573853,78.983147 
z"/>
<path fill="#000000" opacity="1.000000" stroke="none" 
	d="
M257.589752,74.875320 
	C258.465454,82.047668 259.559143,88.787941 256.497009,95.352989 
	C252.049454,104.888412 244.229950,108.823425 234.148849,109.398201 
	C223.114426,110.027336 215.196198,105.151077 210.088455,95.686684 
	C206.462952,88.968773 204.533234,81.699966 206.196350,74.019135 
	C208.827637,61.866905 219.022827,53.897133 231.823776,53.675758 
	C244.680115,53.453430 253.746490,60.799812 257.589752,74.875320 
M232.863708,99.807381 
	C239.688629,99.576447 243.186829,96.702736 243.620499,90.698219 
	C244.157288,83.265831 242.688553,76.153732 239.495667,69.450493 
	C237.484146,65.227448 232.447998,62.704300 228.450485,63.594231 
	C224.002670,64.584412 220.738297,68.338913 220.383774,73.181732 
	C219.848068,80.499489 221.630325,87.360779 225.108902,93.741898 
	C226.626556,96.525887 228.712769,98.944969 232.863708,99.807381 
z"/>
<path fill="#000000" opacity="1.000000" stroke="none" 
	d="
M519.725586,78.896271 
	C520.662415,74.931343 521.583740,71.388344 522.410217,67.823364 
	C522.876221,65.813339 523.143250,63.734989 520.673157,62.741257 
	C518.515869,61.873375 516.752563,62.652096 515.396484,64.402077 
	C514.789124,65.185791 514.335754,66.088402 513.808594,66.934624 
	C512.885620,68.416214 511.780426,69.663208 509.812897,69.334023 
	C507.566315,68.958168 507.153015,67.130318 506.733704,65.294167 
	C506.104889,62.540600 505.445099,59.792877 504.731842,57.060062 
	C503.222931,51.278625 504.631317,49.698055 510.636475,51.045528 
	C520.858215,53.339130 531.041321,55.809574 541.216553,58.304138 
	C546.224121,59.531792 551.213135,60.863140 556.145630,62.361347 
	C560.915344,63.810112 561.449402,65.835785 558.197205,69.414024 
	C555.957397,71.878380 553.741028,74.381966 551.312195,76.651962 
	C548.389954,79.383179 545.795349,78.475372 544.853882,74.546295 
	C544.545471,73.259132 544.570862,71.866936 544.114197,70.645958 
	C543.357239,68.621910 541.841187,67.393623 539.549805,67.408852 
	C537.126526,67.424957 536.688782,69.205978 536.220459,71.062241 
	C534.062866,79.614090 531.797241,88.139153 529.702209,96.706078 
	C528.903320,99.973083 528.947205,103.129463 530.592407,106.389397 
	C532.475525,110.120811 531.028564,112.018394 526.983032,111.220131 
	C521.608459,110.159615 516.300964,108.686310 511.047913,107.112404 
	C508.250549,106.274239 506.836304,103.339073 509.673492,102.083549 
	C515.967285,99.298416 516.028503,93.658211 517.463257,88.526161 
	C518.313232,85.485725 518.942139,82.383461 519.725586,78.896271 
z"/>
</svg>